<?xml version="1.0" standalone="no"?>
<!DOCTYPE svg PUBLIC "-//W3C//DTD SVG 1.1//EN" "http://www.w3.org/Graphics/SVG/1.1/DTD/svg11.dtd" >
<svg xmlns="http://www.w3.org/2000/svg">
<metadata>Generated by IcoMoon</metadata>
<defs>
<font id="icomoon" horiz-adv-x="1024">
<font-face units-per-em="1024" ascent="960" descent="-64" />
<missing-glyph horiz-adv-x="1024" />
<glyph unicode="&#x20;" d="" horiz-adv-x="512" />
<glyph unicode="&#xe600;" d="M876.587 737.067l-59.093 71.68c-11.947 14.080-29.653 23.253-49.493 23.253h-512c-19.84 0-37.547-9.173-49.28-23.253l-59.093-71.68c-12.373-14.933-19.627-33.707-19.627-54.4v-533.333c0-47.147 38.187-85.333 85.333-85.333h597.333c47.147 0 85.333 38.187 85.333 85.333v533.333c0 20.693-7.253 39.467-19.413 54.4zM512 213.333l-234.667 234.667h149.333v85.333h170.667v-85.333h149.333l-234.667-234.667zM218.667 746.667l34.773 42.667h512l39.893-42.667h-586.667z" />
<glyph unicode="&#xe601;" d="M310.906-54.742l502.742 502.742-502.742 502.742z" />
<glyph unicode="&#xe602;" d="M9.258 246.906l502.742 502.742 502.742-502.742z" />
<glyph unicode="&#xe603;" d="M384 270.080l-177.92 177.92-60.373-60.373 238.293-238.293 512 512-60.373 60.373z" />
<glyph unicode="&#xe604;" d="M810.667 832h-597.333c-47.147 0-85.333-38.187-85.333-85.333v-597.333c0-47.147 38.187-85.333 85.333-85.333h597.333c47.147 0 85.333 38.187 85.333 85.333v597.333c0 47.147-38.187 85.333-85.333 85.333zM426.667 234.667l-213.333 213.333 60.373 60.373 152.96-152.96 323.627 323.627 60.373-60.373-384-384z" />
<glyph unicode="&#xe605;" d="M810.667 746.667v-597.333h-597.333v597.333h597.333zM810.667 832h-597.333c-47.147 0-85.333-38.187-85.333-85.333v-597.333c0-47.147 38.187-85.333 85.333-85.333h597.333c47.147 0 85.333 38.187 85.333 85.333v597.333c0 47.147-38.187 85.333-85.333 85.333z" />
<glyph unicode="&#xe606;" d="M810.667 686.293l-60.373 60.373-238.293-238.293-238.293 238.293-60.373-60.373 238.293-238.293-238.293-238.293 60.373-60.373 238.293 238.293 238.293-238.293 60.373 60.373-238.293 238.293z" />
<glyph unicode="&#xe607;" d="M128 224v-160h160l472.107 472.107-160 160-472.107-472.107zM883.413 659.413c16.64 16.64 16.64 43.733 0 60.373l-99.627 99.627c-16.64 16.64-43.733 16.64-60.373 0l-78.080-78.080 160-160 78.080 78.080z" />
<glyph unicode="&#xe608;" d="M128 405.333h341.333v426.667h-341.333v-426.667zM128 64h341.333v256h-341.333v-256zM554.667 64h341.333v426.667h-341.333v-426.667zM554.667 832v-256h341.333v256h-341.333z" />
<glyph unicode="&#xe609;" d="M512 874.667c-235.733 0-426.667-190.933-426.667-426.667s190.933-426.667 426.667-426.667 426.667 190.933 426.667 426.667-190.933 426.667-426.667 426.667zM512 106.667c-188.587 0-341.333 152.747-341.333 341.333 0 78.933 27.093 151.253 71.893 209.067l478.507-478.507c-57.813-44.8-130.133-71.893-209.067-71.893zM781.44 238.933l-478.507 478.507c57.813 44.8 130.133 71.893 209.067 71.893 188.587 0 341.333-152.747 341.333-341.333 0-78.933-27.093-151.253-71.893-209.067z" />
<glyph unicode="&#xe60a;" d="M384 270.080l-177.92 177.92-60.373-60.373 238.293-238.293 512 512-60.373 60.373z" />
<glyph unicode="&#xe60b;" d="M384 277.333h256v256h170.667l-298.667 298.667-298.667-298.667h170.667zM213.333 192h597.333v-85.333h-597.333z" />
<glyph unicode="&#xe60c;" d="M512 874.667c-235.733 0-426.667-190.933-426.667-426.667s190.933-426.667 426.667-426.667 426.667 190.933 426.667 426.667-190.933 426.667-426.667 426.667zM554.667 149.333h-85.333v85.333h85.333v-85.333zM642.773 479.787l-38.187-39.253c-30.72-30.72-49.92-56.533-49.92-120.533h-85.333v21.333c0 47.147 19.2 89.813 49.92 120.747l53.12 53.76c15.36 15.36 24.96 36.693 24.96 60.16 0 47.147-38.187 85.333-85.333 85.333s-85.333-38.187-85.333-85.333h-85.333c0 94.293 76.373 170.667 170.667 170.667s170.667-76.373 170.667-170.667c0-37.547-15.147-71.467-39.893-96.213z" />
<glyph unicode="&#xe60d;" d="M512 874.667c-235.733 0-426.667-190.933-426.667-426.667s190.933-426.667 426.667-426.667 426.667 190.933 426.667 426.667-190.933 426.667-426.667 426.667zM554.667 234.667h-85.333v256h85.333v-256zM554.667 576h-85.333v85.333h85.333v-85.333z" />
<glyph unicode="&#xe60e;" d="M913.493 465.92l-383.787 383.787c-15.573 15.36-36.907 24.96-60.373 24.96h-298.667c-47.147 0-85.333-38.187-85.333-85.333v-298.667c0-23.68 9.6-45.013 25.173-60.373l384-384c15.36-15.36 36.693-24.96 60.16-24.96s45.013 9.6 60.373 24.96l298.667 298.667c15.36 15.573 24.96 36.907 24.96 60.373 0 23.68-9.6 45.013-25.173 60.587zM234.667 661.333c-35.413 0-64 28.587-64 64s28.587 64 64 64 64-28.587 64-64-28.587-64-64-64z" />
<glyph unicode="&#xe60f;" d="M853.333 618.667h-128v170.667h-597.333c-47.147 0-85.333-38.187-85.333-85.333v-469.333h85.333c0-70.613 57.387-128 128-128s128 57.387 128 128h256c0-70.613 57.387-128 128-128s128 57.387 128 128h85.333v213.333l-128 170.667zM256 170.667c-35.413 0-64 28.587-64 64s28.587 64 64 64 64-28.587 64-64-28.587-64-64-64zM832 554.667l83.84-106.667h-190.507v106.667h106.667zM768 170.667c-35.413 0-64 28.587-64 64s28.587 64 64 64 64-28.587 64-64-28.587-64-64-64z" />
<glyph unicode="&#xe610;" d="M128 224v-160h160l472.107 472.107-160 160-472.107-472.107zM883.413 659.413c16.64 16.64 16.64 43.733 0 60.373l-99.627 99.627c-16.64 16.64-43.733 16.64-60.373 0l-78.080-78.080 160-160 78.080 78.080z" />
<glyph unicode="&#xe611;" d="M280.747 807.253l-61.013 61.013c-102.187-77.867-169.6-198.187-176-334.933h85.333c6.613 113.067 64.853 212.053 151.68 273.92zM852.267 533.333h85.333c-6.4 136.747-73.813 257.067-176 334.933l-60.8-60.8c86.613-62.080 144.853-161.067 151.467-274.133zM768 512c0 131.2-91.093 240.64-213.333 269.653v29.013c0 35.413-28.587 64-64 64s-64-28.587-64-64v-29.013c-122.24-29.013-213.333-138.453-213.333-269.653v-234.667l-85.333-85.333v-42.667h725.333v42.667l-85.333 85.333v234.667zM490.667 21.333c5.973 0 11.733 0.64 17.28 1.707 27.733 5.76 50.56 24.96 61.44 50.347 4.267 10.24 6.613 21.333 6.613 33.28h-170.667c0-47.147 38.187-85.333 85.333-85.333z" />
<glyph unicode="&#xe612;" d="M512 708.267c49.493 0 89.6-40.107 89.6-89.6s-40.107-89.6-89.6-89.6-89.6 40.107-89.6 89.6 40.107 89.6 89.6 89.6zM512 324.267c126.933 0 260.267-62.080 260.267-89.6v-46.933h-520.533v46.933c0 27.52 133.333 89.6 260.267 89.6zM512 789.333c-94.293 0-170.667-76.373-170.667-170.667 0-94.080 76.373-170.667 170.667-170.667s170.667 76.587 170.667 170.667c0 94.293-76.373 170.667-170.667 170.667zM512 405.333c-113.707 0-341.333-56.96-341.333-170.667v-128h682.667v128c0 113.707-227.627 170.667-341.333 170.667z" />
<glyph unicode="&#xe613;" d="M829.013 406.4c1.707 13.653 2.987 27.52 2.987 41.6s-1.28 27.947-2.987 41.6l90.24 70.613c8.107 6.4 10.453 17.92 5.12 27.307l-85.333 147.84c-5.333 9.173-16.427 13.013-26.027 9.173l-106.24-42.88c-21.973 16.853-46.080 31.147-72.107 42.027l-16 113.067c-1.92 10.027-10.667 17.92-21.333 17.92h-170.667c-10.667 0-19.413-7.893-21.12-17.92l-16-113.067c-26.027-10.88-50.133-24.96-72.107-42.027l-106.24 42.88c-9.6 3.627-20.693 0-26.027-9.173l-85.333-147.84c-5.333-9.173-2.987-20.693 5.12-27.307l90.027-70.613c-1.707-13.653-2.987-27.52-2.987-41.6s1.28-27.947 2.987-41.6l-90.027-70.613c-8.107-6.4-10.453-17.92-5.12-27.307l85.333-147.84c5.333-9.173 16.427-13.013 26.027-9.173l106.24 42.88c21.973-16.853 46.080-31.147 72.107-42.027l16-113.067c1.707-10.027 10.453-17.92 21.12-17.92h170.667c10.667 0 19.413 7.893 21.12 17.92l16 113.067c26.027 10.88 50.133 24.96 72.107 42.027l106.24-42.88c9.6-3.627 20.693 0 26.027 9.173l85.333 147.84c5.333 9.173 2.987 20.693-5.12 27.307l-90.027 70.613zM512 298.667c-82.56 0-149.333 66.773-149.333 149.333s66.773 149.333 149.333 149.333 149.333-66.773 149.333-149.333-66.773-149.333-149.333-149.333z" />
<glyph unicode="&#xe614;" d="M298.667 192c-47.147 0-84.907-38.187-84.907-85.333s37.76-85.333 84.907-85.333 85.333 38.187 85.333 85.333-38.187 85.333-85.333 85.333zM42.667 874.667v-85.333h85.333l153.387-323.627-57.6-104.533c-6.613-12.373-10.453-26.24-10.453-41.173 0-47.147 38.187-85.333 85.333-85.333h512v85.333h-493.867c-5.973 0-10.667 4.693-10.667 10.667 0 1.92 0.427 3.627 1.28 5.12l38.187 69.547h317.867c32 0 59.947 17.707 74.667 43.947l152.533 276.907c3.413 5.973 5.333 13.013 5.333 20.48 0 23.68-19.2 42.667-42.667 42.667h-630.827l-40.533 85.333h-139.307zM725.333 192c-47.147 0-84.907-38.187-84.907-85.333s37.76-85.333 84.907-85.333 85.333 38.187 85.333 85.333-38.187 85.333-85.333 85.333z" />
<glyph unicode="&#xe615;" d="M128 192h256v85.333h-256v-85.333zM128 704v-85.333h768v85.333h-768zM128 405.333h512v85.333h-512v-85.333z" />
<glyph unicode="&#xe616;" d="M512 349.867l158.293-115.2-60.587 186.027 158.293 112.64h-194.133l-61.867 192-61.867-192h-194.133l158.293-112.64-60.373-186.027z" />
<glyph unicode="&#xe617;" d="M42.667 64h170.667v512h-170.667v-512zM981.333 533.333c0 47.147-38.187 85.333-85.333 85.333h-269.44l40.747 194.987c0.853 4.267 1.493 8.747 1.493 13.44 0 17.707-7.253 33.707-18.773 45.227l-45.44 45.013-280.96-280.96c-15.36-15.573-24.96-36.907-24.96-60.373v-426.667c0-47.147 38.187-85.333 85.333-85.333h384c35.413 0 65.707 21.547 78.507 52.053l128.64 300.8c3.84 9.813 6.187 20.267 6.187 31.147v81.707l-0.427 0.427 0.427 3.2z" />
<glyph unicode="&#xe618;" d="M512 704c0 23.467-19.2 42.667-42.667 42.667h-221.227l28.373 135.467c0.64 3.2 1.067 6.613 1.067 10.027 0 13.227-5.333 25.173-14.080 33.92l-33.92 33.92-210.773-210.773c-11.52-11.52-18.773-27.52-18.773-45.227v-277.333c0-35.413 28.587-64 64-64h288c26.453 0 49.28 16 58.88 39.040l96.64 225.707c2.773 7.253 4.48 14.933 4.48 23.253v53.333zM960 533.333h-288c-26.453 0-49.28-16-58.88-39.040l-96.64-225.707c-2.773-7.253-4.48-14.933-4.48-23.253v-53.333c0-23.467 19.2-42.667 42.667-42.667h221.227l-28.373-135.467c-0.64-3.2-1.067-6.613-1.067-10.027 0-13.227 5.333-25.173 14.080-33.92l33.92-33.92 210.773 210.773c11.52 11.52 18.773 27.52 18.773 45.227v277.333c0 35.413-28.587 64-64 64z" />
<glyph unicode="&#xe619;" d="M170.667 362.667h170.667v170.667h-170.667v-170.667zM170.667 149.333h170.667v170.667h-170.667v-170.667zM170.667 576h170.667v170.667h-170.667v-170.667zM384 362.667h512v170.667h-512v-170.667zM384 149.333h512v170.667h-512v-170.667zM384 746.667v-170.667h512v170.667h-512z" />
<glyph unicode="&#xe61a;" d="M554.667 576v234.667c0 35.413-28.587 64-64 64s-64-28.587-64-64v-157.013l333.867-333.867 135.467-42.453v85.333l-341.333 213.333zM128 734.933l212.693-212.693-255.36-159.573v-85.333l341.333 106.667v-234.667l-85.333-64v-64l149.333 42.667 149.333-42.667v64l-85.333 64v158.933l244.267-244.267 54.4 54.4-670.933 670.933-54.4-54.4z" />
<glyph unicode="&#xe61b;" d="M896 277.333v85.333l-341.333 213.333v234.667c0 35.413-28.587 64-64 64s-64-28.587-64-64v-234.667l-341.333-213.333v-85.333l341.333 106.667v-234.667l-85.333-64v-64l149.333 42.667 149.333-42.667v64l-85.333 64v234.667l341.333-106.667z" />
<glyph unicode="&#xe61c;" d="M810.667 405.333h-256v-256h-85.333v256h-256v85.333h256v256h85.333v-256h256v-85.333z" />
<glyph unicode="&#xe61f;" d="M445.44 800.256c-23.808-6.4-44.288-24.32-52.736-46.592-4.608-12.032-4.864-24.32-4.864-306.944v-294.4l7.168-14.592c8.192-16.64 22.784-30.976 39.936-38.912l11.776-5.376h591.36l11.776 5.376c17.152 7.936 31.744 22.272 39.936 38.912l7.168 14.592v591.36l-5.376 11.776c-7.936 17.152-22.272 31.744-38.912 39.936l-14.592 7.168-290.56 0.512c-224.256 0.256-293.12-0.256-302.080-2.816zM1018.88 448v-276.48h-552.96v552.96h552.96v-276.48zM795.648 485.12l-139.008-136.704-54.272 54.016-54.016 54.016-15.104-12.8c-27.648-24.064-32.768-13.824 42.24-88.064 36.096-35.84 69.632-68.608 74.24-72.704l8.192-7.424 75.008 73.984c40.96 40.96 111.872 111.104 157.44 155.904l82.688 81.92-17.408 17.408c-9.472 9.472-18.176 17.408-19.2 17.408s-64.512-61.696-140.8-136.96z" horiz-adv-x="1485" />
<glyph unicode="&#xe620;" d="M512 768c-213.333 0-395.52-132.693-469.333-320 73.813-187.307 256-320 469.333-320s395.52 132.693 469.333 320c-73.813 187.307-255.787 320-469.333 320zM512 234.667c-117.76 0-213.333 95.573-213.333 213.333s95.573 213.333 213.333 213.333 213.333-95.573 213.333-213.333-95.573-213.333-213.333-213.333zM512 576c-70.613 0-128-57.387-128-128s57.387-128 128-128 128 57.387 128 128-57.387 128-128 128z" />
<glyph unicode="&#xe621;" d="M465.323 525.995q-19.2 0-35.499-9.899-16.64-10.069-25.685-29.269-8.96-19.541-8.96-41.899 0-27.904 13.739-43.008 13.653-14.848 38.229-14.848 21.845 0 38.4 11.776 16.469 12.032 24.064 34.304l-27.648 4.352q-4.608-13.909-13.653-20.224-8.533-6.912-19.285-6.912-11.776 0-19.2 8.363-7.936 9.813-7.936 25.259 0 13.568 6.4 29.611 5.547 14.251 15.275 21.589 9.472 6.997 21.419 6.997 9.557 0 16.555-5.12 6.315-5.888 8.107-17.237l26.539 2.645q-1.792 19.712-15.701 31.744-13.312 11.776-35.157 11.776zM998.912 478.379q-10.155 10.837-28.245 10.837-27.136 0-43.179-21.419-11.093-14.592-11.093-35.584 0-20.651 12.032-32.683 12.715-12.715 32.256-12.715 14.848 0 25.941 6.912 10.923 7.083 18.261 21.163l-23.381 3.84q-7.595-13.227-20.821-13.227-7.509 0-13.568 6.059-5.717 5.461-5.717 15.616v2.389h65.877v0.683q1.877 6.315 1.877 17.067 0 19.712-10.24 31.061zM952.917 464.469q6.656 5.973 14.677 5.973 8.192 0 12.971-5.547 4.864-6.4 4.864-16.64v-2.133h-41.387q1.877 11.008 8.875 18.347zM1022.123 486.485l0.597-0.256-20.48-97.28h25.941l6.229 30.293q3.499 17.92 7.936 27.477 3.157 8.277 10.837 13.909 6.656 5.035 13.739 5.035 3.072 0 7.936-1.195l9.899 21.76q-6.059 2.987-12.373 2.987-15.189 0-29.525-20.736l3.925 18.005h-24.661zM598.357 477.44q-10.923 11.776-33.109 11.776-24.917 0-40.021-16.299-14.848-16.299-15.104-42.667v-0.683q0.256-11.179 5.205-21.077 5.461-10.837 15.701-15.701 10.411-5.717 24.064-5.717 25.515 0 40.363 17.493 15.36 17.408 15.36 40.619 0 20.736-12.459 32.256zM565.248 469.675q8.363 0 13.909-5.717 5.291-5.376 5.461-14.848v-0.256q-0.171-19.541-10.325-31.573-7.339-9.643-18.261-9.643-8.619 0-14.251 6.059-5.717 5.888-5.717 16.811 0 9.387 3.584 18.603 3.669 9.728 10.325 15.36 6.827 5.205 15.275 5.205zM801.963 474.795l2.133 11.691h-24.747l0.256-1.195-20.139-97.28h25.941l9.045 44.629q2.987 13.141 3.925 15.275 2.56 6.827 5.973 11.776 3.499 3.84 8.448 6.912 4.011 2.389 8.789 2.389 4.864 0 7.253-2.389 2.645-2.645 2.645-6.571l-14.421-72.021h26.197l8.96 44.203q3.584 19.029 9.643 26.624 7.595 10.155 17.749 10.155 4.864 0 7.253-2.389 2.816-2.645 2.816-6.571-0.512-0.939-2.816-12.715l-12.544-59.307h26.197l12.288 59.307q2.645 12.032 2.645 17.579 0 10.411-6.571 16.811-6.229 6.571-18.005 6.571-10.069 0-19.627-4.864-8.363-4.096-14.165-12.032-2.475 8.192-7.765 12.373-6.315 4.949-16.896 4.949-16.725 0-30.464-13.909zM756.48 481.707q-6.485 6.571-18.261 6.571-10.069 0-19.627-4.864-8.363-4.096-14.251-12.032-2.389 8.192-7.68 12.373-6.315 4.949-16.896 4.949-16.555 0-30.464-13.909l2.133 11.691h-24.747l0.256-1.195-20.139-97.28h25.941l12.971 59.904q2.645 7.339 6.229 11.776 2.816 3.669 8.192 6.912 4.011 2.389 8.704 2.389 4.779 0 7.168-2.389 2.816-2.645 2.816-6.571l-14.421-72.021h26.197l8.96 44.203q4.181 19.797 9.643 26.624 7.595 10.155 17.749 10.155 4.864 0 7.253-2.389 2.816-2.645 2.816-6.571-0.597-0.939-2.816-12.715l-12.544-59.307h26.197l12.544 59.307q2.389 13.397 2.389 17.579 0 10.24-6.315 16.811zM1149.184 479.317q-9.131 8.96-27.051 8.96-15.616 0-29.269-8.448-13.483-7.851-19.883-21.931-6.571-13.056-6.571-29.781 0-19.627 10.837-30.464 11.349-11.349 29.525-11.349 16.555 0 28.587 9.216 11.947 8.619 18.603 25.941l-25.515 4.267v-0.427q-3.499-9.472-9.131-13.739-6.144-4.864-12.032-4.864-6.229 0-10.581 4.864-4.096 4.096-4.096 13.483 0 9.899 3.328 21.077 3.072 10.496 9.899 16.896 6.571 5.717 14.421 5.717 6.997 0 10.837-3.84 4.864-4.267 5.205-12.203l24.405 2.389q-3.925-10.181-3.925-22.869 0-20.651 12.032-32.683 12.288-12.715 32.171-12.715 14.848 0 25.941 6.912 11.691 7.765 18.091 21.163l-23.296 3.84q-7.765-13.227-20.736-13.227-7.339 0-13.568 6.059-5.632 5.547-5.632 15.616v2.389h65.877v0.683q1.877 7.765 1.877 17.067 0 19.456-10.581 31.061-10.155 10.837-28.075 10.837-27.648 0-43.008-21.419-4.378-5.625-7.083-12.373-1.24 14.371-11.605 23.893zM1193.131 464.469q6.656 5.973 14.848 5.973 8.021 0 12.971-5.547 4.779-6.4 4.779-16.64v-2.133h-41.301q1.877 11.435 8.704 18.347zM373.077 374.699v-9.557l140.971 6.4-140.971 3.157zM373.675 356.693v-9.643l82.603 6.571-82.603 3.072zM354.795 388.002q7.754 11.764 20.721 33.421 12.165 20.32 21.39 33.421 7.219 10.16 12.032 12.032 4.679 2.139 17.513-0.267l3.342-0.936 2.941 24.999-2.406 0.936q-35.159 8.957-56.014-20.721-9.091-13.368-26.202-41.041-15.374-25.266-26.202-40.64-6.684-9.358-16.176-11.096-6.283-0.936-20.186 1.738l-3.609 0.936-3.075-26.202v-0.267l2.674-0.936q18.315-5.347 36.496-0.535 12.433 3.609 21.657 14.037 3.075 3.476 15.106 21.122zM352.389 390.141q7.085 10.294 20.721 33.421 13.636 22.593 21.122 33.421 7.62 10.828 13.235 13.235 5.882 2.406 19.919-0.267l2.139 18.716q-33.822 8.422-52.404-19.652-11.23-15.909-26.603-40.908-15.775-25.266-26.202-40.373-6.684-10.026-16.176-12.032-8.155-1.872-23.261 1.203l-2.005-20.186h-0.401q18.449-5.214 34.624-0.267 11.497 3.075 19.919 12.566 2.54 3.075 15.374 21.122zM199.721 477.704q-10.026 10.962-28.341 10.962-27.405 0-43.047-21.122-11.096-15.507-11.096-35.56 0-21.122 12.032-33.154 13.235-12.566 32.218-12.566 13.77 0 25.801 6.818 11.363 7.219 18.449 21.39l-23.529 4.011q-7.353-13.636-20.721-13.636-7.62 0-13.636 6.016-5.347 5.347-5.347 15.641v2.807h65.639v0.267q1.738 6.417 1.738 17.513 0 19.785-10.16 30.614zM186.085 447.893v-2.005h-41.175q2.005 11.363 8.69 18.047 6.684 6.016 14.705 6.016 8.155 0 12.967-5.481 4.813-6.283 4.813-16.577zM296.375 469.951l2.941 16.31h-75.799l-4.545-21.122h43.314l-53.207-58.688-3.342-17.78h79.141l4.545 20.989h-46.923l53.875 60.292zM329.796 486.26h-26.202v-0.668l16.577-93.045 18.047 31.015-8.422 62.698zM306.535 357.923q-4.144 4.412-10.294 4.412t-10.962-4.412q-4.412-4.278-4.412-10.294t4.412-10.427q4.813-4.412 10.962-4.412t10.294 4.412q4.412 4.412 4.412 10.427t-4.412 10.294zM356.934 365.142q0 6.417-4.278 10.695-4.679 4.278-10.695 4.278-6.417 0-10.695-4.278-4.412-4.412-4.412-10.695t4.412-10.427q4.278-4.412 10.695-4.412 6.15 0 10.695 4.412 4.278 4.144 4.278 10.427z" horiz-adv-x="1365" />
<glyph unicode="&#xe622;" d="M310.906 950.742l502.742-502.742-502.742-502.742z" />
<glyph unicode="&#xe623;" d="M373.116 374.738v-9.626l140.912 6.417-140.912 3.209zM373.651 347.064l82.622 6.551-82.622 3.075v-9.626zM465.353 525.965q-19.251 0-35.56-9.893-16.577-10.026-25.667-29.277-8.957-19.518-8.957-41.843 0-27.94 13.77-43.047 13.636-14.839 38.234-14.839 21.791 0 38.368 11.764 16.443 12.032 24.063 34.357l-27.673 4.278q-4.545-13.903-13.636-20.186-8.556-6.952-19.251-6.952-11.764 0-19.251 8.422-7.887 9.759-7.887 25.266 0 13.502 6.417 29.544 5.481 14.304 15.24 21.657 9.492 6.952 21.39 6.952 9.625 0 16.577-5.080 6.283-5.882 8.155-17.245l26.47 2.674q-1.738 19.652-15.641 31.683-13.368 11.764-35.159 11.764zM610.802 445.219q0 20.721-12.433 32.218-10.962 11.764-33.154 11.764-24.865 0-39.972-16.31-14.839-16.31-15.106-42.645v-0.668q0.267-11.23 5.214-21.122 5.481-10.828 15.641-15.641 10.427-5.748 24.063-5.748 25.534 0 40.373 17.513 15.374 17.379 15.374 40.64zM565.215 469.683q8.422 0 13.903-5.748 5.347-5.347 5.481-14.839v-0.267q-0.134-19.518-10.294-31.55-7.353-9.625-18.315-9.625-8.556 0-14.171 6.016-5.748 5.882-5.748 16.844 0 9.358 3.609 18.582 3.609 9.759 10.294 15.374 6.818 5.214 15.24 5.214zM760.395 447.358q2.406 13.368 2.406 17.513 0 10.294-6.283 16.844-6.551 6.551-18.315 6.551-10.026 0-19.652-4.813-8.288-4.144-14.171-12.032-2.406 8.155-7.754 12.299-6.283 4.946-16.844 4.946-16.577 0-30.48-13.903l2.139 11.764h-24.732l0.267-1.203-20.186-97.323h25.935l12.967 59.891q2.674 7.353 6.283 11.764 2.807 3.743 8.155 6.952 4.011 2.406 8.69 2.406 4.813 0 7.219-2.406 2.807-2.674 2.807-6.551l-14.438-72.056h26.202l8.957 44.25q4.144 19.785 9.625 26.603 7.62 10.16 17.78 10.16 4.813 0 7.219-2.406 2.807-2.674 2.807-6.551-0.535-0.936-2.807-12.7l-12.566-59.356h26.202l12.566 59.356zM886.861 466.608q2.807-2.674 2.807-6.551-0.535-0.936-2.807-12.7l-12.566-59.356h26.202l12.299 59.356q2.674 12.032 2.674 17.513 0 10.427-6.551 16.844-6.283 6.551-18.047 6.551-10.026 0-19.652-4.813-8.288-4.144-14.171-12.032-2.406 8.155-7.754 12.299-6.283 4.946-16.844 4.946-16.711 0-30.48-13.903l2.139 11.764h-24.732l0.267-1.203-20.186-97.323h25.935l9.091 44.651q2.941 13.101 3.877 15.24 2.54 6.818 6.016 11.764 3.476 3.877 8.422 6.952 4.011 2.406 8.823 2.406t7.219-2.406q2.674-2.674 2.674-6.551l-14.438-72.056h26.202l8.957 44.25q3.609 18.983 9.625 26.603 7.62 10.16 17.78 10.16 4.813 0 7.219-2.406zM1009.183 447.358q0 19.652-10.294 31.015-10.16 10.828-28.208 10.828-27.138 0-43.18-21.39-11.096-14.572-11.096-35.56 0-20.721 12.032-32.753 12.7-12.7 32.218-12.7 14.839 0 25.935 6.952 10.962 7.085 18.315 21.122l-23.395 3.877q-7.62-13.235-20.855-13.235-7.486 0-13.502 6.016-5.748 5.481-5.748 15.641v2.406h65.907v0.668q1.872 6.283 1.872 17.112zM980.574 464.871q4.813-6.417 4.813-16.577v-2.139h-41.309q1.872 10.962 8.823 18.315 6.684 6.016 14.705 6.016 8.155 0 12.967-5.615zM1066.935 465.673q3.075 0 7.887-1.203l9.893 21.791q-6.016 2.941-12.299 2.941-15.24 0-29.544-20.721l3.877 18.047h-24.598l0.535-0.267-20.454-97.323h25.935l6.283 30.346q3.476 17.914 7.887 27.405 3.208 8.288 10.828 13.903 6.684 5.080 13.77 5.080zM1160.915 455.112q-1.203 14.572-11.764 24.197-9.091 8.957-27.004 8.957-15.641 0-29.277-8.422-13.502-7.887-19.919-21.924-6.551-13.101-6.551-29.812 0-19.652 10.828-30.48 11.363-11.363 29.544-11.363 16.577 0 28.609 9.224 11.898 8.69 18.582 25.935l-25.534 4.278v-0.401q-3.476-9.492-9.091-13.77-6.15-4.813-12.032-4.813-6.283 0-10.561 4.813-4.144 4.144-4.144 13.502 0 9.893 3.342 21.122 3.075 10.427 9.893 16.844 6.551 5.748 14.438 5.748 6.952 0 10.828-3.877 4.813-4.278 5.214-12.165l24.598 2.406zM1238.987 478.373q-10.16 10.828-28.074 10.828-27.673 0-43.047-21.39-11.096-14.304-11.096-35.56 0-20.721 12.032-32.753 12.299-12.7 32.218-12.7 14.839 0 25.935 6.952 11.631 7.754 18.047 21.122l-23.261 3.877q-7.754-13.235-20.721-13.235-7.353 0-13.636 6.016-5.615 5.615-5.615 15.641v2.406h65.907v0.668q1.872 7.754 1.872 17.112 0 19.384-10.561 31.015zM1193.133 464.469q6.684 6.016 14.839 6.016 8.021 0 12.967-5.615 4.813-6.417 4.813-16.577v-2.139h-41.309q1.872 11.363 8.69 18.315zM354.795 388.002q7.754 11.764 20.721 33.421 12.165 20.32 21.39 33.421 7.219 10.16 12.032 12.032 4.679 2.139 17.513-0.267l3.342-0.936 2.941 24.999-2.406 0.936q-35.159 8.957-56.014-20.721-9.091-13.368-26.202-41.041-15.374-25.266-26.202-40.64-6.684-9.358-16.176-11.096-6.283-0.936-20.186 1.738l-3.609 0.936-3.075-26.202v-0.267l2.674-0.936q18.315-5.347 36.496-0.535 12.433 3.609 21.657 14.037 3.075 3.476 15.106 21.122zM352.389 390.141q7.085 10.294 20.721 33.421 13.636 22.593 21.122 33.421 7.62 10.828 13.235 13.235 5.882 2.406 19.919-0.267l2.139 18.716q-33.822 8.422-52.404-19.652-11.23-15.909-26.603-40.908-15.775-25.266-26.202-40.373-6.684-10.026-16.176-12.032-8.155-1.872-23.261 1.203l-2.005-20.186h-0.401q18.449-5.214 34.624-0.267 11.497 3.075 19.919 12.566 2.54 3.075 15.374 21.122zM199.721 477.704q-10.026 10.962-28.341 10.962-27.405 0-43.047-21.122-11.096-15.507-11.096-35.56 0-21.122 12.032-33.154 13.235-12.566 32.218-12.566 13.77 0 25.801 6.818 11.363 7.219 18.449 21.39l-23.529 4.011q-7.353-13.636-20.721-13.636-7.62 0-13.636 6.016-5.347 5.347-5.347 15.641v2.807h65.639v0.267q1.738 6.417 1.738 17.513 0 19.785-10.16 30.614zM186.085 447.893v-2.005h-41.175q2.005 11.363 8.69 18.047 6.684 6.016 14.705 6.016 8.155 0 12.967-5.481 4.813-6.283 4.813-16.577zM296.375 469.951l2.941 16.31h-75.799l-4.545-21.122h43.314l-53.207-58.688-3.342-17.78h79.141l4.545 20.989h-46.923l53.875 60.292zM329.796 486.26h-26.202v-0.668l16.577-93.045 18.047 31.015-8.422 62.698zM306.535 357.923q-4.144 4.412-10.294 4.412t-10.962-4.412q-4.412-4.278-4.412-10.294t4.412-10.427q4.813-4.412 10.962-4.412t10.294 4.412q4.412 4.412 4.412 10.427t-4.412 10.294zM356.934 365.142q0 6.417-4.278 10.695-4.679 4.278-10.695 4.278-6.417 0-10.695-4.278-4.412-4.412-4.412-10.695t4.412-10.427q4.278-4.412 10.695-4.412 6.15 0 10.695 4.412 4.278 4.144 4.278 10.427z" horiz-adv-x="1365" />
<glyph unicode="&#xe624;" d="M465.323 525.995q-19.2 0-35.499-9.899-16.64-10.069-25.685-29.269-8.96-19.541-8.96-41.899 0-27.904 13.739-43.008 13.653-14.848 38.229-14.848 21.845 0 38.4 11.776 16.469 12.032 24.064 34.304l-27.648 4.352q-4.608-13.909-13.653-20.224-8.533-6.912-19.285-6.912-11.776 0-19.2 8.363-7.936 9.813-7.936 25.259 0 13.568 6.4 29.611 5.547 14.251 15.275 21.589 9.472 6.997 21.419 6.997 9.557 0 16.555-5.12 6.315-5.888 8.107-17.237l26.539 2.645q-1.792 19.712-15.701 31.744-13.312 11.776-35.157 11.776zM998.912 478.379q-10.155 10.837-28.245 10.837-27.136 0-43.179-21.419-11.093-14.592-11.093-35.584 0-20.651 12.032-32.683 12.715-12.715 32.256-12.715 14.848 0 25.941 6.912 10.923 7.083 18.261 21.163l-23.381 3.84q-7.595-13.227-20.821-13.227-7.509 0-13.568 6.059-5.717 5.461-5.717 15.616v2.389h65.877v0.683q1.877 6.315 1.877 17.067 0 19.712-10.24 31.061zM952.917 464.469q6.656 5.973 14.677 5.973 8.192 0 12.971-5.547 4.864-6.4 4.864-16.64v-2.133h-41.387q1.877 11.008 8.875 18.347zM1022.123 486.485l0.597-0.256-20.48-97.28h25.941l6.229 30.293q3.499 17.92 7.936 27.477 3.157 8.277 10.837 13.909 6.656 5.035 13.739 5.035 3.072 0 7.936-1.195l9.899 21.76q-6.059 2.987-12.373 2.987-15.189 0-29.525-20.736l3.925 18.005h-24.661zM598.357 477.44q-10.923 11.776-33.109 11.776-24.917 0-40.021-16.299-14.848-16.299-15.104-42.667v-0.683q0.256-11.179 5.205-21.077 5.461-10.837 15.701-15.701 10.411-5.717 24.064-5.717 25.515 0 40.363 17.493 15.36 17.408 15.36 40.619 0 20.736-12.459 32.256zM565.248 469.675q8.363 0 13.909-5.717 5.291-5.376 5.461-14.848v-0.256q-0.171-19.541-10.325-31.573-7.339-9.643-18.261-9.643-8.619 0-14.251 6.059-5.717 5.888-5.717 16.811 0 9.387 3.584 18.603 3.669 9.728 10.325 15.36 6.827 5.205 15.275 5.205zM801.963 474.795l2.133 11.691h-24.747l0.256-1.195-20.139-97.28h25.941l9.045 44.629q2.987 13.141 3.925 15.275 2.56 6.827 5.973 11.776 3.499 3.84 8.448 6.912 4.011 2.389 8.789 2.389 4.864 0 7.253-2.389 2.645-2.645 2.645-6.571l-14.421-72.021h26.197l8.96 44.203q3.584 19.029 9.643 26.624 7.595 10.155 17.749 10.155 4.864 0 7.253-2.389 2.816-2.645 2.816-6.571-0.512-0.939-2.816-12.715l-12.544-59.307h26.197l12.288 59.307q2.645 12.032 2.645 17.579 0 10.411-6.571 16.811-6.229 6.571-18.005 6.571-10.069 0-19.627-4.864-8.363-4.096-14.165-12.032-2.475 8.192-7.765 12.373-6.315 4.949-16.896 4.949-16.725 0-30.464-13.909zM756.48 481.707q-6.485 6.571-18.261 6.571-10.069 0-19.627-4.864-8.363-4.096-14.251-12.032-2.389 8.192-7.68 12.373-6.315 4.949-16.896 4.949-16.555 0-30.464-13.909l2.133 11.691h-24.747l0.256-1.195-20.139-97.28h25.941l12.971 59.904q2.645 7.339 6.229 11.776 2.816 3.669 8.192 6.912 4.011 2.389 8.704 2.389 4.779 0 7.168-2.389 2.816-2.645 2.816-6.571l-14.421-72.021h26.197l8.96 44.203q4.181 19.797 9.643 26.624 7.595 10.155 17.749 10.155 4.864 0 7.253-2.389 2.816-2.645 2.816-6.571-0.597-0.939-2.816-12.715l-12.544-59.307h26.197l12.544 59.307q2.389 13.397 2.389 17.579 0 10.24-6.315 16.811zM1149.184 479.317q-9.131 8.96-27.051 8.96-15.616 0-29.269-8.448-13.483-7.851-19.883-21.931-6.571-13.056-6.571-29.781 0-19.627 10.837-30.464 11.349-11.349 29.525-11.349 16.555 0 28.587 9.216 11.947 8.619 18.603 25.941l-25.515 4.267v-0.427q-3.499-9.472-9.131-13.739-6.144-4.864-12.032-4.864-6.229 0-10.581 4.864-4.096 4.096-4.096 13.483 0 9.899 3.328 21.077 3.072 10.496 9.899 16.896 6.571 5.717 14.421 5.717 6.997 0 10.837-3.84 4.864-4.267 5.205-12.203l24.405 2.389q-3.925-10.181-3.925-22.869 0-20.651 12.032-32.683 12.288-12.715 32.171-12.715 14.848 0 25.941 6.912 11.691 7.765 18.091 21.163l-23.296 3.84q-7.765-13.227-20.736-13.227-7.339 0-13.568 6.059-5.632 5.547-5.632 15.616v2.389h65.877v0.683q1.877 7.765 1.877 17.067 0 19.456-10.581 31.061-10.155 10.837-28.075 10.837-27.648 0-43.008-21.419-4.378-5.625-7.083-12.373-1.24 14.371-11.605 23.893zM1193.131 464.469q6.656 5.973 14.848 5.973 8.021 0 12.971-5.547 4.779-6.4 4.779-16.64v-2.133h-41.301q1.877 11.435 8.704 18.347zM373.077 374.699v-9.557l140.971 6.4-140.971 3.157zM373.675 356.693v-9.643l82.603 6.571-82.603 3.072zM354.795 388.002q7.754 11.764 20.721 33.421 12.165 20.32 21.39 33.421 7.219 10.16 12.032 12.032 4.679 2.139 17.513-0.267l3.342-0.936 2.941 24.999-2.406 0.936q-35.159 8.957-56.014-20.721-9.091-13.368-26.202-41.041-15.374-25.266-26.202-40.64-6.684-9.358-16.176-11.096-6.283-0.936-20.186 1.738l-3.609 0.936-3.075-26.202v-0.267l2.674-0.936q18.315-5.347 36.496-0.535 12.433 3.609 21.657 14.037 3.075 3.476 15.106 21.122zM352.389 390.141q7.085 10.294 20.721 33.421 13.636 22.593 21.122 33.421 7.62 10.828 13.235 13.235 5.882 2.406 19.919-0.267l2.139 18.716q-33.822 8.422-52.404-19.652-11.23-15.909-26.603-40.908-15.775-25.266-26.202-40.373-6.684-10.026-16.176-12.032-8.155-1.872-23.261 1.203l-2.005-20.186h-0.401q18.449-5.214 34.624-0.267 11.497 3.075 19.919 12.566 2.54 3.075 15.374 21.122zM199.721 477.704q-10.026 10.962-28.341 10.962-27.405 0-43.047-21.122-11.096-15.507-11.096-35.56 0-21.122 12.032-33.154 13.235-12.566 32.218-12.566 13.77 0 25.801 6.818 11.363 7.219 18.449 21.39l-23.529 4.011q-7.353-13.636-20.721-13.636-7.62 0-13.636 6.016-5.347 5.347-5.347 15.641v2.807h65.639v0.267q1.738 6.417 1.738 17.513 0 19.785-10.16 30.614zM186.085 447.893v-2.005h-41.175q2.005 11.363 8.69 18.047 6.684 6.016 14.705 6.016 8.155 0 12.967-5.481 4.813-6.283 4.813-16.577zM296.375 469.951l2.941 16.31h-75.799l-4.545-21.122h43.314l-53.207-58.688-3.342-17.78h79.141l4.545 20.989h-46.923l53.875 60.292zM329.796 486.26h-26.202v-0.668l16.577-93.045 18.047 31.015-8.422 62.698zM306.535 357.923q-4.144 4.412-10.294 4.412t-10.962-4.412q-4.412-4.278-4.412-10.294t4.412-10.427q4.813-4.412 10.962-4.412t10.294 4.412q4.412 4.412 4.412 10.427t-4.412 10.294zM356.934 365.142q0 6.417-4.278 10.695-4.679 4.278-10.695 4.278-6.417 0-10.695-4.278-4.412-4.412-4.412-10.695t4.412-10.427q4.278-4.412 10.695-4.412 6.15 0 10.695 4.412 4.278 4.144 4.278 10.427z" horiz-adv-x="1365" />
<glyph unicode="&#xe625;" d="M962.388 476.19q6.41 9.971-3.561 17.806l-59.827 47.007q2.137 27.777 2.137 28.489l-2.137 27.777 59.827 47.007q9.971 7.834 3.561 17.806l-56.978 98.999q-5.698 9.971-17.093 6.41l-71.223-29.201q-22.079 17.806-47.719 28.489l-10.683 75.496q-2.849 12.108-14.245 12.108h-113.956q-4.986 0-9.259-3.561t-4.986-8.547l-10.683-75.496q-23.503-9.259-48.431-28.489l-71.223 29.201q-11.396 3.561-17.093-6.41l-56.978-98.999q-6.41-9.971 3.561-17.806l59.827-47.007-2.137-27.777q0-0.712 2.137-28.489l-59.827-47.007q-9.971-7.834-3.561-17.806l56.978-98.999q5.698-10.683 17.806-6.41l70.51 29.201q24.928-19.23 48.431-28.489l10.683-75.496q0.712-4.986 4.986-8.547t9.259-3.561h113.956q12.108 0 13.532 12.108l10.683 75.496q23.503 9.259 48.431 28.489l71.223-29.201q11.396-3.561 17.093 6.41l56.978 98.999zM757.979 640.002q29.201-29.201 29.201-70.51t-29.201-70.51-70.51-29.201-70.51 29.201q-29.201 28.489-29.201 70.51 0 41.309 29.201 70.51t70.51 29.201 70.51-29.201zM39.68 110.080v-66.56h723.2v66.56q0 32-115.2 74.24-125.44 48.64-248.32 48.64-119.040 0-244.48-48.64-115.2-42.24-115.2-74.24zM572.16 444.16q0 71.68-49.92 120.32-49.92 51.2-117.76 51.2-71.68 0-121.6-51.2-47.36-48.64-47.36-120.32 0-72.96 47.36-121.6 49.92-48.64 121.6-48.64 67.84 0 117.76 48.64t49.92 121.6z" />
<glyph unicode="&#xe626;" d="M847.36 636.16l-217.6 103.68v-62.72h-148.48q-7.68 0-14.080-2.56-7.68-3.84-12.8-10.24l-151.040-194.56h-29.44q-8.96 33.28-35.84 58.88-39.68 40.96-96 40.96t-97.28-40.96q-39.68-39.68-39.68-96t39.68-96q40.96-40.96 97.28-40.96t96 40.96q28.16 28.16 37.12 64h42.24q2.56 0 3.84 0h143.36l171.52-171.52q10.24-10.24 24.32-10.24h142.080v-64l217.6 101.12-217.6 103.68v-71.68h-128l-171.52 171.52q-10.24 10.24-24.32 10.24h-88.32l108.8 138.24h130.56v-72.96l217.6 101.12z" />
<glyph unicode="&#xe627;" d="M1017.6 445.44q0 211.2-149.76 360.96t-360.96 149.76-359.68-149.76q-149.76-149.76-149.76-360.96 0-209.92 149.76-359.68 148.48-149.76 359.68-149.76t360.96 149.76 149.76 359.68zM614.4 702.72q43.52-42.24 43.52-106.24 0-62.72-43.52-106.24-46.080-42.24-107.52-42.24t-106.24 42.24q-44.8 43.52-44.8 106.24 0 64 44.8 106.24 44.8 46.080 106.24 46.080t107.52-46.080zM317.44 371.2q96 37.12 189.44 37.12t189.44-37.12q112.64-46.080 112.64-113.92v-112.64h-604.16v112.64q0 67.84 112.64 113.92zM276.48 257.28v-40.96h460.8v40.96q0 20.48-72.96 48.64-79.36 30.72-157.44 30.72t-157.44-30.72q-72.96-28.16-72.96-48.64zM561.92 540.16q23.040 23.040 23.040 56.32t-23.040 56.32q-23.040 24.32-55.040 24.32-33.28 0-56.32-24.32-21.76-23.040-21.76-56.32t21.76-56.32q23.040-23.040 56.32-23.040 32 0 55.040 23.040z" />
<glyph unicode="&#xe628;" d="M491.52 277.76q-98.56 39.68-195.84 39.68t-194.56-39.68q-89.6-33.28-89.6-58.88v-51.2h569.6v51.2q0 25.6-89.6 58.88zM215.040 591.36q-38.4-39.68-38.4-96t38.4-96q37.12-37.12 96-37.12 53.76 0 92.16 37.12 39.68 39.68 39.68 96t-39.68 96q-38.4 40.96-92.16 40.96-58.88 0-96-40.96zM436.48 218.88v-51.2h570.88v51.2q0 25.6-89.6 58.88-98.56 39.68-195.84 39.68t-195.84-39.68q-89.6-33.28-89.6-58.88zM737.28 632.32q-58.88 0-96-40.96-38.4-39.68-38.4-96t38.4-96q37.12-37.12 96-37.12 53.76 0 92.16 37.12 39.68 39.68 39.68 96t-39.68 96q-38.4 40.96-92.16 40.96zM505.6 304.64q-94.72 0-193.28-38.4-90.88-33.28-90.88-58.88v-52.48h570.88v52.48q0 25.6-90.88 58.88-98.56 38.4-195.84 38.4zM654.080 483.84q0 56.32-39.68 94.72-39.68 40.96-93.44 40.96-56.32 0-96-40.96-37.12-38.4-37.12-94.72 0-57.6 37.12-96 39.68-38.4 96-38.4 53.76 0 93.44 38.4t39.68 96z" />
<glyph unicode="&#xe629;" d="M1012.48 712.96q-3.84 3.84-8.96 3.84h-981.76q-5.12 0-8.96-3.84t-3.84-8.96v-512q0-5.12 3.84-8.96t8.96-3.84h981.76q5.12 0 8.96 3.84t3.84 8.96v512q0 5.12-3.84 8.96zM970.24 563.2v-225.28l-113.92-122.88q-2.56 3.84-7.68 3.84l-672-1.28q-3.84 0-6.4-1.28l-120.32 108.8v220.16q0 1.28-1.28 3.84l121.6 119.040q2.56-1.28 6.4-1.28l680.96 1.28 112.64-104.96zM227.84 432.64q0 23.040-15.36 38.4t-37.12 15.36q-23.040 0-38.4-15.36t-15.36-38.4q0-21.76 15.36-37.12t38.4-15.36q21.76 0 37.12 15.36t15.36 37.12zM750.080 432.64q0-21.76 15.36-37.12t37.12-15.36q23.040 0 38.4 15.36t15.36 37.12q0 23.040-15.36 38.4t-38.4 15.36q-21.76 0-37.12-15.36t-15.36-38.4zM524.8 540.16q5.12-5.12 10.24-20.48l75.52 12.8q-7.68 32-30.72 51.2-24.32 17.92-70.4 20.48v20.48h-29.44v-20.48q-49.92-2.56-75.52-25.6-24.32-25.6-24.32-61.44 0-25.6 11.52-44.8 12.8-17.92 30.72-26.88 16.64-7.68 57.6-19.2v-71.68q-14.080 6.4-20.48 15.36t-10.24 29.44l-81.92-10.24q3.84-19.2 11.52-34.56 7.68-14.080 20.48-25.6 14.080-12.8 32-20.48 19.2-6.4 48.64-8.96v-38.4h29.44v38.4q25.6 1.28 42.24 6.4 17.92 5.12 33.28 17.92t24.32 30.72q10.24 19.2 10.24 40.96 0 37.12-26.88 62.72-21.76 17.92-83.2 34.56v58.88q11.52-6.4 15.36-11.52zM544 385.28q0-11.52-8.96-20.48-7.68-8.96-25.6-12.8v65.28q20.48-6.4 26.88-15.36 7.68-7.68 7.68-16.64zM456.96 527.36q0 8.96 5.12 14.080 5.12 6.4 17.92 11.52v-52.48q-12.8 3.84-17.92 10.24t-5.12 16.64z" />
<glyph unicode="&#xe62a;" d="M794.88 739.84v47.36h-334.080v-47.36h334.080zM794.88 620.8v47.36h-556.8v-47.36h556.8zM418.56 153.6v47.36h-180.48v-47.36h180.48zM418.56 38.4v46.080h-180.48v-46.080h180.48zM418.56 271.36v48.64h-180.48v-48.64h180.48zM238.080 435.2v-48.64h180.48v48.64h-180.48zM794.88 505.6v47.36h-556.8v-47.36h556.8zM888.32 880.64q0 32-24.32 56.32-19.2 16.64-44.8 23.040h-515.84l-166.4-172.8v-770.56q0-33.28 24.32-57.6 19.2-23.040 55.040-23.040h591.36q34.56 0 56.32 23.040l1.28 1.28q23.040 20.48 23.040 56.32v864zM826.88 899.84q6.4-6.4 6.4-19.2v-864q0-12.8-6.4-19.2-11.52-8.96-19.2-8.96h-591.36q-7.68 0-19.2 8.96-6.4 8.96-6.4 19.2v770.56h113.92v120.32h503.040q10.24 0 19.2-7.68zM779.034 369.321q-10.266 42.775-41.064 68.441-32.509 23.954-94.106 27.376v27.376h-39.353v-27.376q-66.73-3.422-100.95-34.22-32.509-34.22-32.509-82.129 0-34.22 15.399-59.886 17.11-23.954 41.064-35.931 22.243-10.266 76.996-25.665v-95.817q-18.821 8.555-27.376 20.532t-13.688 39.353l-109.505-13.688q5.133-25.665 15.399-46.197 10.266-18.821 27.376-34.22 18.821-17.11 42.775-27.376 25.665-8.555 65.019-11.977v-51.33h39.353v51.33q34.22 1.711 56.464 8.555 23.954 6.844 44.486 23.954t32.509 41.064q13.688 25.665 13.688 54.752 0 49.619-35.931 83.84-29.087 23.954-111.216 46.197v78.707q15.399-8.555 20.532-15.399 6.844-6.844 13.688-27.376l100.95 17.11zM679.796 194.797q10.266-10.266 10.266-22.243 0-15.399-11.977-27.376-10.266-11.977-34.22-17.11v87.262q27.376-8.555 35.931-20.532zM604.511 396.697v-70.152q-17.11 5.133-23.954 13.688t-6.844 22.243q0 11.977 6.844 18.821 6.844 8.555 23.954 15.399z" />
<glyph unicode="&#xe62b;" d="M104.96 134.4v-102.4h716.8v102.4h-716.8zM529.92 327.68l136.96 136.96 144.64-143.36v505.6l-506.88 1.28 144.64-144.64-217.6-217.6-1.28-222.72 299.52-1.28v85.76z" />
<glyph unicode="&#xe62c;" d="M298.667 192c-47.147 0-84.907-38.187-84.907-85.333s37.76-85.333 84.907-85.333 85.333 38.187 85.333 85.333-38.187 85.333-85.333 85.333zM42.667 874.667v-85.333h85.333l153.387-323.627-57.6-104.533c-6.613-12.373-10.453-26.24-10.453-41.173 0-47.147 38.187-85.333 85.333-85.333h512v85.333h-493.867c-5.973 0-10.667 4.693-10.667 10.667 0 1.92 0.427 3.627 1.28 5.12l38.187 69.547h317.867c32 0 59.947 17.707 74.667 43.947l152.533 276.907c3.413 5.973 5.333 13.013 5.333 20.48 0 23.68-19.2 42.667-42.667 42.667h-630.827l-40.533 85.333h-139.307zM725.333 192c-47.147 0-84.907-38.187-84.907-85.333s37.76-85.333 84.907-85.333 85.333 38.187 85.333 85.333-38.187 85.333-85.333 85.333z" />
<glyph unicode="&#xe62d;" d="M913.493 465.92l-383.787 383.787c-15.573 15.36-36.907 24.96-60.373 24.96h-298.667c-47.147 0-85.333-38.187-85.333-85.333v-298.667c0-23.68 9.6-45.013 25.173-60.373l384-384c15.36-15.36 36.693-24.96 60.16-24.96s45.013 9.6 60.373 24.96l298.667 298.667c15.36 15.573 24.96 36.907 24.96 60.373 0 23.68-9.6 45.013-25.173 60.587zM234.667 661.333c-35.413 0-64 28.587-64 64s28.587 64 64 64 64-28.587 64-64-28.587-64-64-64z" />
<glyph unicode="&#xe62e;" d="M853.333 618.667h-128v170.667h-597.333c-47.147 0-85.333-38.187-85.333-85.333v-469.333h85.333c0-70.613 57.387-128 128-128s128 57.387 128 128h256c0-70.613 57.387-128 128-128s128 57.387 128 128h85.333v213.333l-128 170.667zM256 170.667c-35.413 0-64 28.587-64 64s28.587 64 64 64 64-28.587 64-64-28.587-64-64-64zM832 554.667l83.84-106.667h-190.507v106.667h106.667zM768 170.667c-35.413 0-64 28.587-64 64s28.587 64 64 64 64-28.587 64-64-28.587-64-64-64z" />
<glyph unicode="&#xe62f;" d="M273.429 834.322q0 35.895-25.8 60.573-26.173 25.426-63.19 25.426h-0.374q-37.017 0-62.816-25.426-26.173-24.678-26.173-60.573v-97.59q-7.929-6.060-15.33-13.461-42.625-42.625-42.625-102.824 0-60.573 42.625-103.198 7.401-7.401 15.33-13.461v-442.331q0-35.895 26.173-60.947 25.8-25.052 62.816-25.052h0.374q37.017 0 63.19 25.052 25.8 25.052 25.8 60.947v444.948q6.158 4.983 11.965 10.843l0.374 0.374q42.625 42.251 42.625 102.824 0 60.199-42.625 102.824-5.993 5.993-12.339 11.217v99.833zM228.56 834.322v-75.155q-21.532 6.73-45.99 6.73-22.545 0-42.625-5.982v74.407q0 17.574 13.087 29.912 12.713 12.713 31.034 12.713h0.374q18.321 0 31.408-12.713 12.713-12.339 12.713-29.912zM95.075 570.344q-13.087 22.23-13.087 50.103 0 27.802 13.087 50.477 6.45 10.814 16.078 20.565l0.374 0.374q13.041 12.876 28.417 20.191 19.446 8.974 42.625 8.974 25.237 0 45.99-10.469 13.688-7.332 25.426-19.069 12.272-12.272 19.443-26.547 10.095-20.233 10.095-44.495 0-24.479-10.095-44.495-7.171-14.65-19.443-26.921-11.737-11.737-25.426-18.695-20.753-10.843-45.99-10.843-23.179 0-42.625 9.348-15.375 7.149-28.417 20.191-9.878 9.878-16.452 21.313zM139.944 480.606q20.080-5.983 42.625-5.983 24.494 0 45.99 7.104v-420.271q0-17.574-12.713-30.286-13.087-12.339-31.408-12.339h-0.374q-18.321 0-31.034 12.339-13.087 12.713-13.087 30.286v419.149zM509.364 920.32h-0.374q-37.017 0-62.816-25.426-26.173-24.678-26.173-60.573v-458.409q-5.753-5.005-11.217-10.469-42.625-42.625-42.625-102.824 0-60.573 42.625-103.198 5.465-5.465 11.217-10.095v-87.868q0-35.895 26.173-60.947 25.8-25.052 62.816-25.052h0.374q37.017 0 63.19 25.052 25.8 25.052 25.8 60.947v83.755q8.346 6.408 16.078 14.208l0.374 0.374q42.625 42.251 42.625 102.824 0 60.199-42.625 102.824-7.916 7.916-16.452 14.582v454.296q0 35.895-25.8 60.573-26.173 25.426-63.19 25.426zM540.772 864.234q12.713-12.339 12.713-29.912v-431.862q-19.74 5.609-41.877 5.609-24.868 0-46.738-7.104v433.357q0 17.574 13.087 29.912 12.713 12.713 31.034 12.713h0.374q18.321 0 31.408-12.713zM440.565 334.035q11.28 11.137 24.304 17.948 21.083 11.217 46.738 11.217 22.762 0 41.877-8.6 16.055-7.455 29.539-20.939 9.054-9.054 15.33-19.069 14.208-23.191 14.208-51.973 0-29.042-14.208-51.973-6.276-10.389-15.33-19.443-13.484-13.484-29.539-20.565-19.116-8.974-41.877-8.974-25.655 0-46.738 11.217-13.024 7.041-24.304 18.321-13.259 13.259-20.565 29.165-8.974 19.17-8.974 42.251 0 23.022 8.974 42.625 7.204 15.263 20.191 28.417l0.374 0.374zM511.607 116.795q22.167 0 41.877 5.609v-60.947q0-17.574-12.713-30.286-13.087-12.339-31.408-12.339h-0.374q-18.321 0-31.034 12.339-13.087 12.713-13.087 30.286v62.816q21.871-7.478 46.738-7.478zM927.391 834.322q0 35.895-25.8 60.573-26.173 25.426-63.19 25.426h-0.374q-37.017 0-62.816-25.426-26.173-24.678-26.173-60.573v-100.581q-5.753-5.005-11.217-10.469-42.625-42.625-42.625-102.824 0-60.573 42.625-103.198 5.465-5.465 11.217-10.095v-445.696q0-35.895 26.173-60.947 25.8-25.052 62.816-25.052h0.374q37.017 0 63.19 25.052 25.8 25.052 25.8 60.947v441.583q8.347 6.409 16.078 14.208l0.374 0.374q42.625 42.251 42.625 102.824 0 60.199-42.625 102.824-7.915 7.915-16.452 14.582v96.468zM806.993 864.234q12.713 12.713 31.034 12.713h0.374q18.321 0 31.408-12.713 12.713-12.339 12.713-29.912v-74.033q-19.74 5.609-41.878 5.609-24.868 0-46.738-7.104v75.529q0 17.574 13.087 29.912zM769.602 691.863q11.28 11.137 24.304 17.948 21.083 11.217 46.738 11.217 22.762 0 41.878-8.6 16.055-7.455 29.539-20.939 9.054-9.054 15.33-19.069 14.208-23.191 14.208-51.973 0-29.042-14.208-51.973-6.276-10.389-15.33-19.443-13.484-13.484-29.539-20.565-19.116-8.974-41.878-8.974-25.655 0-46.738 11.217-13.024 7.041-24.304 18.321-13.259 13.259-20.565 29.165-8.974 19.17-8.974 42.251 0 23.022 8.974 42.625 7.204 15.263 20.191 28.417l0.374 0.374zM840.645 474.624q22.166 0 41.878 5.983v-419.149q0-17.574-12.713-30.286-13.087-12.339-31.408-12.339h-0.374q-18.321 0-31.034 12.339-13.087 12.713-13.087 30.286v420.645q21.871-7.478 46.738-7.478zM81.989 620.447q0-27.874 13.087-50.103 6.574-11.435 16.452-21.313 13.041-13.041 28.417-20.191 19.446-9.348 42.625-9.348 25.237 0 45.99 10.843 13.688 6.958 25.426 18.695 12.272 12.272 19.443 26.921 10.095 20.016 10.095 44.495 0 24.262-10.095 44.495-7.171 14.276-19.443 26.547-11.737 11.737-25.426 19.069-20.753 10.469-45.99 10.469-23.179 0-42.625-8.974-15.375-7.315-28.417-20.191l-0.374-0.374q-9.628-9.751-16.078-20.565-13.087-22.675-13.087-50.477zM464.869 351.982q-13.024-6.811-24.304-17.948l-0.374-0.374q-12.987-13.154-20.191-28.417-8.974-19.604-8.974-42.625 0-23.081 8.974-42.251 7.306-15.906 20.565-29.165 11.28-11.28 24.304-18.321 21.083-11.217 46.738-11.217 22.762 0 41.877 8.974 16.055 7.081 29.539 20.565 9.054 9.054 15.33 19.443 14.208 22.931 14.208 51.973 0 28.782-14.208 51.973-6.276 10.015-15.33 19.069-13.484 13.484-29.539 20.939-19.116 8.6-41.877 8.6-25.655 0-46.738-11.217zM793.906 709.811q-13.024-6.811-24.304-17.948l-0.374-0.374q-12.987-13.154-20.191-28.417-8.974-19.604-8.974-42.625 0-23.081 8.974-42.251 7.306-15.906 20.565-29.165 11.28-11.28 24.304-18.321 21.083-11.217 46.738-11.217 22.762 0 41.878 8.974 16.055 7.081 29.539 20.565 9.054 9.054 15.33 19.443 14.208 22.931 14.208 51.973 0 28.782-14.208 51.973-6.276 10.015-15.33 19.069-13.484 13.484-29.539 20.939-19.116 8.6-41.878 8.6-25.655 0-46.738-11.217z" />
<glyph unicode="&#xe630;" d="M905.227 835.381q0 124.5-119.637 124.5h-558.305q-119.15 0-119.15-124.5v-774.721q0-124.014 119.15-124.014h558.305q119.637 0 119.637 124.014v774.721zM785.59 891.795q54.469 0 54.469-56.414v-774.721q0-55.928-54.469-55.928h-558.305q-53.496 0-53.496 55.928v774.721q0 56.414 53.496 56.414h558.305zM314.338 488.143l-39.879 41.338q-3.959 4.301-10.213 4.377-5.813 0.091-10.213-3.891-4.31-4.438-4.377-10.213-0.084-6.288 3.891-10.699l49.605-51.551q4.459-4.291 10.213-4.377 6.147-0.074 10.213 4.377l80.73 76.84q4.666 3.953 4.863 10.213 0.095 5.68-4.377 10.213-3.942 4.185-10.213 4.377-5.674 0.084-10.213-3.891l-70.031-67.113zM323.578 624.801l80.73 76.84q4.666 3.953 4.863 10.213 0.095 5.68-4.377 10.213-3.942 4.185-10.213 4.377-5.674 0.084-10.213-3.891l-70.031-67.113-39.879 41.338q-3.959 4.301-10.213 4.377-5.813 0.091-10.213-3.891-4.31-4.438-4.377-10.213-0.084-6.288 3.891-10.699l49.605-51.551q4.459-4.291 10.213-4.377 6.147-0.074 10.213 4.377zM348.381 137.987q10.213 10.213 10.213 24.316t-10.213 24.316-24.316 10.213-24.316-10.213-10.213-24.316 10.213-24.316 24.316-10.213 24.316 10.213zM348.381 303.338q10.213 10.213 10.213 24.316t-10.213 24.316-24.316 10.213-24.316-10.213-10.213-24.316 10.213-24.316 24.316-10.213 24.316 10.213zM743.279 312.578q5.992 0.051 10.213 4.377 4.326 4.221 4.377 10.213-0.051 5.992-4.377 10.213-4.221 4.326-10.213 4.377h-293.742q-5.992-0.051-10.213-4.377-4.326-4.221-4.377-10.213 0.051-5.992 4.377-10.213 4.221-4.326 10.213-4.377h293.742zM743.279 149.659q5.992 0.051 10.213 4.377 4.326 4.221 4.377 10.213-0.051 5.992-4.377 10.213-4.221 4.326-10.213 4.377h-293.742q-5.992-0.051-10.213-4.377-4.326-4.221-4.377-10.213 0.051-5.992 4.377-10.213 4.221-4.326 10.213-4.377h293.742zM449.537 509.541q-5.992-0.051-10.213-4.377-4.326-4.221-4.377-10.213 0.051-5.992 4.377-10.213 4.221-4.326 10.213-4.377h293.742q5.992 0.051 10.213 4.377 4.326 4.221 4.377 10.213-0.051 5.992-4.377 10.213-4.221 4.326-10.213 4.377h-293.742zM449.537 670.030q-5.992-0.051-10.213-4.377-4.326-4.221-4.377-10.213 0.051-5.992 4.377-10.213 4.221-4.326 10.213-4.377h293.742q5.992 0.051 10.213 4.377 4.326 4.221 4.377 10.213-0.051 5.992-4.377 10.213-4.221 4.326-10.213 4.377h-293.742z" />
<glyph unicode="&#xe631;" d="M810.667 618.667h-597.333c-70.613 0-128-57.387-128-128v-256h170.667v-170.667h512v170.667h170.667v256c0 70.613-57.387 128-128 128zM682.667 149.333h-341.333v213.333h341.333v-213.333zM810.667 448c-23.68 0-42.667 18.987-42.667 42.667s18.987 42.667 42.667 42.667c23.68 0 42.667-18.987 42.667-42.667s-18.987-42.667-42.667-42.667zM768 832h-512v-170.667h512v170.667z" />
<glyph unicode="&#xe632;" d="M202.248-34.555l306.872 227.050 311.307-227.050-117.96 365.409 311.307 222.615h-382.26l-120.62 376.938-119.733-376.938h-381.373l310.42-222.615-117.96-365.409z" />
<glyph unicode="&#xe633;" d="M876.587 737.067l-59.093 71.68c-11.947 14.080-29.653 23.253-49.493 23.253h-512c-19.84 0-37.547-9.173-49.28-23.253l-59.093-71.68c-12.373-14.933-19.627-33.707-19.627-54.4v-533.333c0-47.147 38.187-85.333 85.333-85.333h597.333c47.147 0 85.333 38.187 85.333 85.333v533.333c0 20.693-7.253 39.467-19.413 54.4zM512 213.333l-234.667 234.667h149.333v85.333h170.667v-85.333h149.333l-234.667-234.667zM218.667 746.667l34.773 42.667h512l39.893-42.667h-586.667z" />
<glyph unicode="&#xe634;" d="M887.040 880.64q0 33.28-24.32 56.32-19.2 19.2-44.8 23.040h-515.84l-165.12-172.8v-770.56q0-33.28 23.040-57.6 23.040-23.040 56.32-23.040h590.080q33.28 0 56.32 23.040l1.28 1.28q23.040 23.040 23.040 56.32v864zM825.6 899.84q7.68-7.68 7.68-19.2v-864q0-11.52-7.68-19.2t-19.2-7.68h-590.080q-11.52 0-19.2 7.68t-7.68 19.2v770.56h113.92v120.32h503.040q11.52 0 19.2-7.68zM236.8 321.28v-49.92h558.080v49.92h-558.080zM794.88 387.84v47.36h-558.080v-47.36h558.080zM794.88 506.88v47.36h-558.080v-47.36h558.080zM719.766 341.454l-100.939 100.939-297.435-297.435v-100.939h100.939l297.435 297.435zM805.228 438.356q0 11.44-7.402 18.842l-63.255 63.255q-7.402 7.402-18.842 7.402t-18.842-7.402l-49.797-49.124 100.939-100.939 49.797 49.124q7.402 7.402 7.402 18.842z" />
<glyph unicode="&#xe635;" d="M691.2 542.72l79.36-56.32 56.32 17.92 24.32 88.32-28.16-30.72-12.8 42.24-19.2-74.24-78.080 49.92 19.2-39.68-40.96 2.56zM124.16 229.12q-47.36 0-81.92-34.56-33.28-33.28-33.28-81.92 0-47.36 33.28-81.92 34.56-33.28 81.92-33.28 48.64 0 83.2 33.28 33.28 34.56 33.28 81.92 0 48.64-33.28 81.92-34.56 34.56-83.2 34.56zM60.16 112.64q0 26.88 19.2 46.080t44.8 19.2q26.88 0 46.080-19.2t19.2-46.080-19.2-44.8q-19.2-19.2-46.080-19.2-25.6 0-44.8 19.2-19.2 17.92-19.2 44.8zM505.6 268.8q-57.6 0-97.28-39.68h1.28q-40.96-39.68-40.96-97.28 0-56.32 40.96-96h-1.28q39.68-40.96 97.28-40.96 56.32 0 97.28 40.96 39.68 39.68 39.68 96 0 57.6-39.68 97.28-40.96 39.68-97.28 39.68zM445.44 192q24.32 25.6 60.16 25.6t60.16-25.6q24.32-24.32 24.32-60.16 0-34.56-24.32-58.88-24.32-25.6-60.16-25.6t-60.16 25.6q-25.6 24.32-25.6 58.88 0 35.84 25.6 60.16zM556.8 355.84q-6.4 15.36-24.32 25.6l-117.76 375.040q-2.56 10.24-11.52 17.92-8.96 6.4-20.48 6.4h-270.080q-14.080 0-23.040-10.24-10.24-8.96-10.24-23.040v-290.56h-46.080q-28.16-3.84-33.28-38.4v-183.040q2.56-10.24 10.24-19.2 33.28 42.24 97.28 53.76 44.8 5.12 96-17.92 88.32-57.6 75.52-153.6h56.32q-19.2 104.96 69.12 176.64 79.36 49.92 152.32 23.040v57.6zM462.080 387.84h-102.4l-52.48 51.2q-12.8 17.92-30.72 17.92h-130.56v257.28h213.76l102.4-326.4zM533.76 907.52q-2.56 12.8-15.36 20.48-11.52 5.12-24.32 2.56-14.080-5.12-20.48-16.64t-2.56-25.6l218.88-761.6q2.56-8.96 10.24-15.36 6.4-6.4 15.36-7.68t19.2 1.28l176.64 67.84q12.8 5.12 17.92 17.92 6.4 12.8 1.28 25.6t-17.92 17.92-24.32 0l-144.64-55.040-209.92 728.32z" />
<glyph unicode="&#xe636;" d="M541.825-62.195h347.444v438.081h-350.040l2.596-438.081zM466.293 375.886h-326.673v-438.081h326.673v438.081zM807.6 840.403q-3.304 3.068-25.492 17.231-14.162 8.969-19.355 20.299-14.634 30.685-33.517 43.667-21.007 14.398-55.94 14.398-18.411 0-54.76-17.939-63.729-44.611-89.693-173.25l-18.883-67.27q-0.472 3.068-1.18 6.137-21.479 110.7-72.227 210.307h-0.472q-0.708 1.888-1.416 3.777-12.51 28.796-28.56 41.778-19.119 15.342-50.512 15.342-18.647 0-29.032-5.429-7.081-4.013-16.050-14.634-23.604-28.796-55.704-43.194-30.921-13.926-47.207-35.169-20.771-26.672-20.771-67.506 0-11.802 0.708-15.342 1.18-6.609 6.609-16.286 33.517-42.486 82.376-73.643 73.643-47.207 182.219-67.978-52.164-2.36-112.353 12.51-2.832 0.708-5.429 1.18-76.003 17.939-130.527 54.288-27.616 18.175-49.567 41.070l10.858-49.331q-11.802-21.715-47.207-22.423 88.041-48.387 205.351-52.4h-222.345v-196.381h358.773v196.381h-94.178q17.939 0.472 36.585 2.124l93.47 8.261 128.403-3.777q2.832-0.236 5.665-0.236 173.486-7.317 240.756 49.331-37.53 1.652-53.108 21.479 2.124 3.068 4.013 5.901 14.634 22.423 10.858 42.486-11.33-20.063-40.598-42.486h-38.946q17.231 9.913 27.144 17.939 13.69 11.566 23.131 25.020 3.541 5.901 8.497 16.758 9.677 22.187 9.677 40.834 0 12.038-6.845 31.393t-13.218 24.784zM706.577 846.304q5.901-2.596 9.913-5.901 3.304-2.832 4.957-8.497 1.652-5.429 4.485-7.553 3.541-2.832 16.758-9.913 11.566-8.497 11.566-21.243 0-9.913-4.485-18.175-4.013-7.553-11.094-12.274-1.416-0.708-2.832-1.416-0.236 0-0.472-0.236-77.42-32.337-149.174-77.42-30.921-19.355-60.897-41.306 6.845 19.827 18.411 41.306 36.349 67.506 119.198 152.479 0.944 0.944 2.124 1.652 5.193 3.777 14.162 7.081 10.15 4.013 16.995 4.013 4.249 0 10.386-2.596zM318.299 873.684q9.677 6.373 20.535 6.373 22.423 0 44.139-30.212 14.398-19.827 20.771-38.946l72.463-174.194q-38.002 19.355-74.115 46.971-48.387 37.058-92.998 88.985l-22.895 33.281q-1.652 2.832-3.541 6.137-3.304 5.665-3.304 15.106 0 10.858 10.386 16.758 12.51 6.845 15.106 13.454 3.777 9.913 13.454 16.286zM916.885 404.21v196.381h-378.836l1.18-196.381h377.656z" />
<glyph unicode="&#xe637;" d="M862.72 936.96q-19.2 19.2-44.8 23.040h-515.84l-165.12-172.8v-770.56q0-33.28 23.040-57.6 23.040-23.040 56.32-23.040h590.080q33.28 0 56.32 23.040l1.28 1.28q23.040 23.040 23.040 56.32v864q0 33.28-24.32 56.32zM806.4 907.52q11.52 0 19.2-7.68t7.68-19.2v-864q0-11.52-7.68-19.2t-19.2-7.68h-590.080q-11.52 0-19.2 7.68t-7.68 19.2v770.56h113.92v120.32h503.040zM236.8 202.24v-47.36h558.080v47.36h-558.080zM236.8 85.76v-47.36h558.080v47.36h-558.080zM236.8 321.28v-49.92h558.080v49.92h-558.080zM794.88 387.84v47.36h-558.080v-47.36h558.080zM794.88 506.88v47.36h-558.080v-47.36h558.080zM775.68 853.76h-252.16v-252.16h252.16v252.16zM480 126.72q12.8-11.52 30.72-12.8h2.56q17.92 1.28 30.72 12.8 12.8 14.080 12.8 33.28 0 14.080-7.68 25.6-2.56 2.56-5.12 5.12-14.080 12.8-32 12.8-19.2 0-32-12.8-2.56-2.56-3.84-5.12-8.96-11.52-8.96-25.6 0-19.2 12.8-33.28zM545.28 674.56q-11.52 12.8-25.6 14.080-3.84 1.28-6.4 1.28-19.2 0-33.28-15.36-5.12-6.4-7.68-12.8-6.4-12.8-6.4-28.16 0-10.24 2.56-28.16 0-2.56 0-3.84l35.84-330.24h15.36l37.12 330.24q0 1.28 0 3.84 1.28 14.080 1.28 23.040 0 11.52-1.28 20.48-1.28 6.4-3.84 12.8t-7.68 12.8z" />
<glyph unicode="&#xe638;" d="M885.76 880.64c0 23.040-7.68 40.96-23.040 56.32-12.8 12.8-28.16 20.48-46.080 23.040h-517.12l-163.84-174.080v-770.56c0-23.040 7.68-40.96 23.040-58.88 15.36-15.36 33.28-23.040 56.32-23.040h588.8c23.040 0 40.96 7.68 56.32 23.040l2.56 2.56c15.36 15.36 23.040 33.28 23.040 56.32v865.28zM806.4 908.8c7.68 0 15.36-2.56 20.48-7.68s7.68-10.24 7.68-20.48v-865.28c0-7.68-2.56-12.8-7.68-20.48-5.12-5.12-10.24-7.68-20.48-7.68h-588.8c-7.68 0-15.36 2.56-20.48 7.68s-7.68 12.8-7.68 20.48v770.56h115.2v122.88h501.76zM235.52 320v-48.64h558.080v48.64h-558.080zM235.52 87.040v-48.64h558.080v48.64h-558.080zM235.52 202.24v-48.64h558.080v48.64h-558.080zM796.16 506.88v48.64h-558.080v-48.64h558.080zM796.16 386.56v48.64h-558.080v-48.64h558.080zM775.68 855.040h-250.88v-253.44h250.88v253.44zM740.448 542.652c2.887 4.812 1.925 8.662-2.887 12.511l-40.422 31.76c0.962 12.511 1.925 19.248 1.925 19.248l-1.925 18.286 40.422 31.76c4.812 3.85 4.812 7.699 2.887 12.511l-38.497 67.37c-2.887 4.812-6.737 5.775-11.549 3.85l-48.121-19.248c-9.624 7.699-20.211 14.436-31.76 19.248l-7.699 51.008c-0.962 5.775-4.812 8.662-9.624 8.662h-76.994c-1.925 0-4.812-0.962-6.737-2.887s-2.887-3.85-2.887-5.775l-7.699-51.008c-10.587-3.85-21.173-10.587-32.722-19.248l-48.121 19.248c-4.812 1.925-8.662 0-11.549-3.85l-38.497-67.37c-2.887-4.812-1.925-8.662 2.887-12.511l40.422-31.76-0.962-18.286c0 0 0-6.737 0.962-19.248l-40.422-31.76c-4.812-3.85-4.812-7.699-2.887-12.511l38.497-66.407c2.887-4.812 6.737-6.737 12.511-3.85l48.121 19.248c11.549-8.662 22.136-15.399 32.722-19.248l7.699-51.008c0-1.925 0.962-3.85 2.887-5.775s3.85-2.887 6.737-2.887h76.994c5.775 0 8.662 2.887 9.624 8.662l7.699 51.008c10.587 3.85 21.173 10.587 32.722 19.248l48.121-19.248c4.812-1.925 8.662 0 11.549 3.85l36.572 66.407zM554.701 673.542c18.286 0 34.647-6.737 48.121-19.248 13.474-13.474 19.248-28.873 19.248-48.121s-6.737-34.647-19.248-47.159c-13.474-13.474-28.873-20.211-48.121-20.211s-34.647 6.737-48.121 20.211c-13.474 12.511-19.248 28.873-19.248 47.159s6.737 34.647 19.248 48.121c13.474 12.511 29.835 19.248 48.121 19.248zM560.717 190.365c2.484 4.139 1.656 7.451-2.484 10.762l-34.77 27.319c0.828 10.762 0.828 16.557 0.828 16.557l-0.828 15.729 34.77 27.319c4.139 3.311 4.967 6.623 2.484 10.762l-33.114 57.122c-2.484 4.139-5.795 4.967-9.934 3.311l-41.393-16.557c-8.279 6.623-18.213 12.418-27.319 16.557l-6.623 43.876c-0.828 4.967-4.139 7.451-8.279 7.451h-66.228c-1.656 0-4.139-0.828-5.795-2.484s-2.484-3.311-2.484-4.967l-6.623-43.876c-9.106-3.311-18.213-9.106-28.147-16.557l-41.393 16.557c-4.139 1.656-7.451 0-9.934-3.311l-33.114-57.122c-2.484-4.139-1.656-7.451 2.484-10.762l34.77-27.319-0.828-15.729c0 0 0-5.795 0.828-16.557l-34.77-27.319c-4.139-3.311-4.139-6.623-2.484-10.762l33.114-57.122c2.484-4.139 5.795-5.795 10.762-3.311l40.565 16.557c9.934-7.451 19.041-13.246 28.147-16.557l6.623-43.876c0-1.656 0.828-3.311 2.484-4.967s3.311-2.484 5.795-2.484h66.228c4.967 0 7.451 2.484 7.451 7.451l6.623 43.876c9.106 3.311 18.213 9.106 28.147 16.557l41.393-16.557c4.139-1.656 7.451 0 9.934 3.311l33.114 57.122zM441.506 285.568c11.59-11.59 17.385-24.836 17.385-40.565s-5.795-29.803-17.385-41.393c-11.59-11.59-24.836-16.557-40.565-16.557s-29.803 5.795-41.393 16.557c-11.59 10.762-16.557 24.836-16.557 41.393 0 15.729 5.795 29.803 16.557 40.565s24.836 17.385 41.393 17.385c15.729-0.828 29.803-6.623 40.565-17.385z" />
<glyph unicode="&#xe639;" d="M544 573.44l2.56-515.84h409.6v515.84h-412.16zM458.24 573.44h-385.28v-515.84h385.28v515.84zM458.24 606.72v230.4h-422.4v-230.4h422.4zM988.16 606.72v230.4h-445.44l1.28-230.4h444.16zM933.12 386.56h-330.24v-298.24h330.24v298.24zM670.72 224v-35.84h244.48v35.84h-244.48zM670.72 157.44v-35.84h244.48v35.84h-244.48zM801.28 254.72v35.84h-130.56v-35.84h130.56z" />
<glyph unicode="&#xe63a;" d="M862.72 936.96q-19.2 19.2-44.8 23.040h-515.84l-165.12-172.8v-770.56q0-33.28 23.040-57.6 23.040-23.040 56.32-23.040h590.080q33.28 0 56.32 23.040l1.28 1.28q23.040 23.040 23.040 56.32v864q0 33.28-24.32 56.32zM806.4 907.52q11.52 0 19.2-7.68t7.68-19.2v-864q0-11.52-7.68-19.2t-19.2-7.68h-590.080q-11.52 0-19.2 7.68t-7.68 19.2v770.56h113.92v120.32h503.040zM236.8 202.24v-47.36h558.080v47.36h-558.080zM236.8 85.76v-47.36h558.080v47.36h-558.080zM236.8 321.28v-49.92h558.080v49.92h-558.080zM794.88 387.84v47.36h-558.080v-47.36h558.080zM794.88 506.88v47.36h-558.080v-47.36h558.080zM775.68 853.76h-252.16v-252.16h252.16v252.16zM719.785 468.686l-32.659 33.507-246.426-246.426-96.492 97.234-33.507-33.507 129.999-129.999 279.085 279.191z" />
<glyph unicode="&#xe63b;" d="M693.12 629.12c-50.133 49.92-115.627 74.88-181.12 74.88v-256l-181.12-181.12c100.053-100.053 261.973-100.053 362.027 0s100.053 262.187 0.213 362.24zM512 874.667c-235.733 0-426.667-190.933-426.667-426.667s190.933-426.667 426.667-426.667 426.667 191.147 426.667 426.667c0 235.733-190.933 426.667-426.667 426.667zM512 106.667c-188.587 0-341.333 152.747-341.333 341.333s152.747 341.333 341.333 341.333 341.333-152.747 341.333-341.333-152.747-341.333-341.333-341.333z" />
<glyph unicode="&#xe63c;" d="M888.32 880.64q0 32-24.32 56.32-19.2 16.64-44.8 23.040h-515.84l-166.4-172.8v-770.56q0-33.28 24.32-57.6 19.2-23.040 55.040-23.040h591.36q34.56 0 56.32 23.040l1.28 1.28q23.040 20.48 23.040 56.32v864zM807.68 907.52q10.24 0 19.2-7.68 6.4-6.4 6.4-19.2v-864q0-12.8-6.4-19.2-11.52-8.96-19.2-8.96h-591.36q-7.68 0-19.2 8.96-6.4 8.96-6.4 19.2v770.56h113.92v120.32h503.040zM238.080 320v-48.64h556.8v48.64h-556.8zM238.080 84.48v-46.080h556.8v46.080h-556.8zM238.080 200.96v-47.36h556.8v47.36h-556.8zM794.88 386.56v48.64h-556.8v-48.64h556.8zM794.88 505.6v47.36h-556.8v-47.36h556.8zM775.68 852.48h-250.88v-250.88h250.88v250.88zM413.44 267.52v-112.64h126.72v112.64h-126.72zM544 337.92q8.96 15.36 39.68 40.96 46.080 34.56 60.16 60.16 15.36 24.32 15.36 51.2 0 64-57.6 102.4-42.24 28.16-110.080 28.16-87.040 0-129.28-40.96t-48.64-107.52l121.6-15.36q3.84 37.12 17.92 51.2 14.080 15.36 37.12 15.36 20.48 0 30.72-10.24 10.24-8.96 10.24-25.6 0-17.92-25.6-38.4-47.36-39.68-61.44-55.040-12.8-15.36-20.48-34.56-6.4-19.2-6.4-48.64v-12.8h119.040q0 24.32 7.68 39.68z" />
<glyph unicode="&#xe63d;" d="M512 960q-212.48 0-362.24-149.76t-149.76-362.24 149.76-362.24 362.24-149.76q211.2 0 362.24 149.76 149.76 149.76 149.76 362.24 0 211.2-149.76 360.96-151.040 151.040-362.24 151.040zM261.12 770.56q111.36 87.040 250.88 87.040 168.96 0 289.28-120.32t120.32-289.28q0-139.52-87.040-250.88-24.015-41.465-72.96-72.96-110.080-85.76-249.6-85.76-170.24 0-289.28 120.32-120.32 119.040-120.32 289.28 0 138.24 85.76 250.88 29.24 40.665 72.96 71.68zM824.32 634.88l-49.92 51.2-376.32-376.32-147.2 148.48-51.2-51.2 198.4-198.4 426.24 426.24z" />
<glyph unicode="&#xe63e;" d="M202.248-34.555l306.872 227.050 311.307-227.050-117.96 365.409 311.307 222.615h-382.26l-120.62 376.938-119.733-376.938h-381.373l310.42-222.615-117.96-365.409z" />
<glyph unicode="&#xe63f;" d="M874.491 808.404q-150.555 151.705-363.172 151.705-211.467 0-362.022-151.705-149.406-150.555-149.406-360.873 0-211.467 150.555-362.022t360.873-150.555q212.616 0 363.172 150.555 149.406 150.555 149.406 362.022t-149.406 360.873zM511.32 857.823q168.944 0 289.618-120.674t120.674-289.618q0-142.51-87.345-251.692l-574.639 574.639q109.181 87.345 251.692 87.345zM101.028 445.233q0 140.212 87.345 251.692l574.639-575.788q-116.077-86.196-251.692-86.196-168.944 0-289.618 120.674t-120.674 289.618z" />
<glyph unicode="&#xe640;" d="M511.787 874.667c-235.733 0-426.453-190.933-426.453-426.667s190.72-426.667 426.453-426.667c235.733 0 426.88 190.933 426.88 426.667s-191.147 426.667-426.88 426.667zM512 106.667c-188.587 0-341.333 152.747-341.333 341.333s152.747 341.333 341.333 341.333 341.333-152.747 341.333-341.333-152.747-341.333-341.333-341.333zM533.333 661.333h-64v-256l223.787-134.4 32.213 52.48-192 113.92z" />
<glyph unicode="&#xe641;" d="M853.333 704h-341.333l-85.333 85.333h-256c-47.147 0-84.907-38.187-84.907-85.333l-0.427-512c0-47.147 38.187-85.333 85.333-85.333h682.667c47.147 0 85.333 38.187 85.333 85.333v426.667c0 47.147-38.187 85.333-85.333 85.333zM853.333 192h-682.667v426.667h682.667v-426.667z" />
<glyph unicode="&#xe642;" d="M876.587 737.067l-59.093 71.68c-11.947 14.080-29.653 23.253-49.493 23.253h-512c-19.84 0-37.547-9.173-49.28-23.253l-59.093-71.68c-12.373-14.933-19.627-33.707-19.627-54.4v-533.333c0-47.147 38.187-85.333 85.333-85.333h597.333c47.147 0 85.333 38.187 85.333 85.333v533.333c0 20.693-7.253 39.467-19.413 54.4zM512 213.333l-234.667 234.667h149.333v85.333h170.667v-85.333h149.333l-234.667-234.667zM218.667 746.667l34.773 42.667h512l39.893-42.667h-586.667z" />
<glyph unicode="&#xe643;" d="M944.898 268.258h79.456v199.15l-119.439 159.167h-119.439v159.422h-500.168q-33.871 0-56.791-23.939-22.92-22.92-22.92-55.772v-46.095l-198.132-43.548 286.756-42.784-293.887-38.455 295.924-31.069-261.289-24.703 170.628-42.784v-168.59h79.711q0-49.915 34.89-84.55 34.89-34.89 84.55-34.89 49.915 0 84.55 34.89 34.89 34.635 34.89 84.55h181.578q0-49.915 34.89-84.55 34.89-34.89 84.804-34.89 49.66 0 84.55 34.89 34.89 34.635 34.89 84.55zM867.225 310.023q17.827-16.808 17.827-41.766t-17.827-42.784q-17.063-17.063-41.766-17.063-24.957 0-43.039 17.063-16.808 16.808-16.808 42.784 0 24.957 16.808 41.766 18.081 17.827 43.039 17.827 24.703 0 41.766-17.827zM885.051 566.983l77.674-99.575h-177.249v99.575h99.575zM446.513 310.023q18.081-16.808 18.081-41.766t-18.081-42.784q-16.808-17.063-41.766-17.063t-42.784 17.063q-16.808 16.808-16.808 42.784 0 24.957 16.808 41.766 17.827 17.827 42.784 17.827t41.766-17.827z" />
<glyph unicode="&#xe644;" d="M693.12 629.12c-50.133 49.92-115.627 74.88-181.12 74.88v-256l-181.12-181.12c100.053-100.053 261.973-100.053 362.027 0s100.053 262.187 0.213 362.24zM512 874.667c-235.733 0-426.667-190.933-426.667-426.667s190.933-426.667 426.667-426.667 426.667 191.147 426.667 426.667c0 235.733-190.933 426.667-426.667 426.667zM512 106.667c-188.587 0-341.333 152.747-341.333 341.333s152.747 341.333 341.333 341.333 341.333-152.747 341.333-341.333-152.747-341.333-341.333-341.333z" />
<glyph unicode="&#xe645;" d="M241.065 112.789q0 48.717-33.598 82.314-34.438 34.438-83.154 34.438-47.877 0-81.474-34.438-34.438-33.598-34.438-82.314 0-47.877 34.438-82.314 33.598-33.598 81.474-33.598 48.717 0 83.154 33.598 33.598 34.438 33.598 82.314zM170.51 158.985q19.319-19.319 19.319-46.197t-19.319-45.357q-19.319-19.319-46.197-19.319-26.038 0-45.357 19.319-19.319 18.479-19.319 45.357t19.319 46.197q19.319 18.479 45.357 18.479 26.878 0 46.197-18.479zM602.24 228.701q-40.317 40.317-96.593 40.317-57.116 0-97.433-40.317h0.84q-40.317-39.477-40.317-96.593 0-56.276 40.317-96.593h-0.84q40.317-40.317 97.433-40.317 56.276 0 96.593 40.317t40.317 96.593q0 57.116-40.317 96.593zM505.647 217.781q35.278 0 59.636-25.198 25.198-25.198 25.198-60.476t-25.198-59.636q-24.358-25.198-59.636-25.198t-60.476 25.198q-25.198 24.358-25.198 59.636t25.198 60.476 60.476 25.198zM852.543 788.941l-225.104-85.674q-6.72-2.52-10.079-8.399-2.52-6.72-0.84-13.439l135.231-454.408q0.84-5.040 5.040-8.399 3.36-3.36 8.399-4.2t10.079 0.84l233.504 94.913q6.72 2.52 10.079 8.399 2.52 6.72 0.84 13.439l-144.47 446.009q-0.84 4.2-5.040 7.559-3.36 3.36-8.399 4.2t-9.239-0.84zM655.156 676.389l192.347 73.075 133.551-413.251-200.746-80.634-125.151 420.811zM493.888 930.052q-13.439-4.2-20.159-15.959t-2.52-25.198l219.225-761.827q2.52-9.239 9.239-15.959 6.72-5.88 15.959-7.559t18.479 1.68l177.228 68.035q12.599 5.040 18.479 17.639t0.84 25.198-17.639 17.639q-12.599 5.88-25.198 0.84l-144.47-55.436-209.145 728.229q-3.36 13.439-15.959 20.159-11.759 5.88-24.358 2.52zM383.015 780.542h-270.461q-13.439 0-22.678-10.079-10.079-9.239-10.079-23.518v-289.78h-47.037q-27.718-4.2-32.758-38.637v-183.107q2.52-10.079 10.079-18.479 33.598 41.997 97.433 53.756 45.357 4.2 95.753-18.479 89.034-57.956 75.595-153.709h57.116q-19.319 104.993 68.035 176.388 79.794 50.396 152.869 23.518v57.116q-6.72 15.959-24.358 26.038l-117.592 375.454q-3.36 10.079-11.759 16.799-9.239 6.72-20.159 6.72zM146.152 714.187h213.345l102.473-326.737h-102.473l-52.916 52.076q-12.599 17.639-30.238 17.639h-130.191v257.022z" />
<glyph unicode="&#xe646;" d="M1015.243 368.15c-1.824-5.717-8.392-10.46-14.474-10.46h-332.535c-6.081 0-9.487 4.744-7.663 10.46l25.421 78.208c1.824 5.717 8.392 10.46 14.474 10.46h332.535c6.081 0 9.487-4.744 7.663-10.46l-25.421-78.208zM767.848 435.898h21.528c10.947 0 13.014-6.568 9.609-17.028-2.068-6.446-7.419-16.663-21.407-16.663h-8.879l-7.541-23.11h-11.92l18.609 56.801zM771.74 411.085h6.69c3.527 0 7.298 3.892 8.514 7.663 1.581 4.622 1.581 8.514-3.892 8.514h-6.081l-5.23-16.177zM821.852 407.558c4.865 14.96 9.609 29.313 29.313 29.313s15.082-14.352 10.095-29.313c-4.865-14.839-9.609-29.313-29.313-29.313s-14.96 14.474-10.095 29.313zM849.218 407.558c4.744 14.596 5.96 20.799-0.73 20.799s-9.73-6.325-14.474-20.799c-4.744-14.596-5.96-20.799 0.73-20.799 6.811 0 9.73 6.325 14.474 20.799zM898.235 378.245c-14.839 0-14.717 8.636-10.947 18.488h11.92c-1.824-5.473-3.041-9.974 3.527-9.974 4.014 0 6.933 2.554 8.149 6.446 3.406 10.217-20.555 10.825-14.96 27.732 2.919 8.879 9.487 15.933 24.083 15.933 11.676 0 15.69-5.23 11.068-17.028h-11.555c1.338 4.257 2.068 8.514-2.797 8.514-3.892 0-6.933-2.068-8.149-6.081-3.527-10.825 20.92-9.852 15.082-27.61-4.865-14.717-16.298-16.42-25.421-16.42zM999.552 435.898l-3.041-9.487h-13.379l-15.569-47.314h-11.92l15.569 47.314h-13.379l3.041 9.487h38.678zM519.48 564.825c0 4.5 4.257 7.298 5.838 8.514 1.581 1.338 5.473 4.014 8.028 4.135 2.676 0 4.865-2.433 4.865-4.987 0-2.433-2.311-3.041-9.73-8.514-2.433-1.824-4.744-3.771-6.446-3.771-1.46 0.122-2.554 1.338-2.554 4.622zM518.75 383.84c0 0.608 0 1.095 0.122 1.703v0c2.433 21.407 47.8 54.125 88.181 79.181v0c9.73 6.081 18.366 11.433 26.15 16.177v0c4.257 6.933 6.69 12.163 8.636 16.663v0c0.365 0.851 0.608 1.581 0.608 2.189v0c0 0.122 0 0.243 0 0.243v0c0 0.365 0 0.73-0.122 0.73v0c-0.122 0.122 0 0.122-0.122 0.122v0c0 0 0 0-0.122 0v0c-0.365 0-0.73-0.243-0.851-0.365v0c-7.906-5.717-22.745-17.393-31.624-17.393v0c-0.365 0-0.73 0-1.216 0.122v0c-3.406 0.365-7.298 2.676-7.298 8.514v0c0 0.608 0 1.216 0.122 1.824v0c0.608 5.595 3.892 9.974 6.446 13.379v0c0.365 0.487 0.608 0.973 0.608 1.095v0c0 0 0 0 0 0v0c0 0 0 0 0 0v0c0 0 0 0 0 0v0c0 0 0 0 0 0v0c-0.243 0-0.608-0.122-1.46-0.608v0c-25.421-14.96-39.408-23.596-45.854-23.596v0c-0.243 0-0.365 0-0.487 0v0c-2.068 0.243-3.649 1.824-3.649 4.257v0c0 0.243 0 0.608 0 0.851v0c0.487 4.135 4.014 9.609 7.541 14.596v0c3.527 4.987 6.933 9.73 7.176 11.798v0c0 0.122 0 0.122 0 0.243v0c0 0.487-0.122 0.608-0.73 0.73v0c-0.122 0-0.122 0-0.243 0v0c-2.676 0-11.19-4.744-23.11-13.987v0c-6.568-4.987-12.041-9.73-16.298-13.258v0c-4.257-3.406-7.055-5.717-8.879-5.717v0c-0.122 0-0.243 0-0.365 0v0c-2.189 0.243-3.649 2.433-3.649 4.257v0c0 0.243 0 0.487 0 0.73v0c0.608 5.108 7.176 13.014 13.744 20.555v0c6.568 7.541 13.014 14.96 13.258 18.123v0c0 0.122 0 0.243 0 0.243v0c0 0.851-0.487 1.095-1.338 1.216v0c-0.122 0-0.243 0-0.365 0v0c-2.554 0-8.028-2.797-19.704-10.217v0c-38.313-24.448-49.26-35.394-55.828-35.516v0c-0.122 0-0.243 0-0.365 0v0c-2.676 0.365-5.352 3.284-5.473 6.69v0c0 0.243 0 0.365 0 0.608v0c0.973 8.149 18.366 23.11 27.245 31.989v0c2.919 2.919 4.865 5.23 4.987 5.96v0c0 0 0 0 0 0v0c0 0.973-0.365 1.216-0.973 1.338v0c-0.122 0-0.243 0-0.243 0v0c-5.108 0-31.989-11.555-54.49-21.893v0c0.243-3.527 0.365-7.541 0.365-12.406v0c0-2.189-0.122-4.5-0.365-6.568v0c-4.5-40.746-50.476-66.41-86.235-66.531v0c-1.703 0-3.406 0.122-5.108 0.243v0c-12.406 1.338-22.745 7.663-22.866 16.785v0c0 0.365 0 0.73 0 1.095v0c1.095 9.73 15.812 21.407 33.083 32.475v0c17.393 11.068 37.462 21.285 49.503 27.488v0c4.5 2.311 10.46 5.23 17.393 8.271v0c-0.73 6.203-1.824 11.19-1.824 27.367v0c0 1.46 0.122 2.919 0.243 4.379v0c-3.892-2.433-7.784-4.987-11.798-7.419v0c-23.718-14.96-56.801-38.070-84.289-60.572v0c-27.488-22.501-49.382-44.516-50.72-57.044v0c0-0.487-0.122-0.851-0.122-1.216v0c0-2.311 1.46-3.284 2.676-3.406v0c0.122 0 0.243 0 0.365 0v0c2.068 0 3.771 0.73 6.203 2.554v0c0.973 0.73 1.703 0.973 2.311 0.973v0c0.73-0.122 1.216-0.73 1.216-1.46v0c0-0.122 0-0.122 0-0.243v0c-0.122-0.851-0.608-1.703-1.095-2.433v0c-1.824-2.554-7.176-6.203-12.893-6.203v0c-0.487 0-1.095 0-1.581 0.122v0c-5.96 0.608-10.582 4.987-10.582 11.92v0c0 0.487 0 1.095 0.122 1.581v0c1.46 12.893 19.217 31.38 41.719 50.233v0c22.501 18.731 49.868 37.705 70.788 50.841v0c18.001 11.433 34.664 21.772 49.503 31.137v0c12.406 40.746 75.897 76.262 95.479 76.383v0c0.608 0 1.338 0 1.824-0.122v0c4.987-0.487 7.663-3.527 7.663-7.419v0c0-0.122 0-0.365 0-0.487v0c-0.851-6.446-15.569-18.001-37.584-32.962v0c-15.204-10.339-34.056-22.258-54.004-34.786v0c-0.73-2.554-1.338-5.108-1.581-7.663v0c-0.122-1.338-0.243-2.676-0.243-4.014v0c0-9.852 0.973-15.69 1.824-23.718v0c8.028 3.527 16.542 7.176 24.691 10.46v0c20.92 8.636 39.53 15.569 43.908 15.69v0c0.122 0 0.365 0 0.487 0v0c2.189-0.243 4.622-2.189 4.744-5.108v0c0-0.243 0-0.365 0-0.608v0c-0.851-7.055-15.447-19.217-22.866-26.759v0c-2.433-2.433-4.135-4.5-4.135-5.23v0c0 0 0 0 0-0.122v0c0-0.487 0.243-0.608 0.608-0.73v0c0 0 0.122 0 0.122 0v0c1.216 0 6.69 3.041 13.014 7.055v0c6.446 4.014 13.987 9.001 20.191 12.771v0c14.109 8.636 28.096 16.055 35.151 16.055v0c0.487 0 0.973 0 1.338-0.122v0c3.527-0.365 4.865-2.554 4.865-4.987v0c0-0.487 0-0.973-0.122-1.338v0c-0.487-4.622-3.649-8.879-12.163-18.974v0c-1.216-1.338-2.189-2.554-2.189-3.162v0c0 0 0-0.122 0-0.122v0c0-0.365 0-0.365 0.365-0.487v0c0 0 0.122 0 0.122 0v0 0c0 0 0 0 0.122 0v0c0.122 0 0.243 0.122 0.365 0.122v0c0.365 0.122 0.73 0.365 1.216 0.73v0c1.095 0.608 2.433 1.46 3.892 2.311v0c3.041 1.824 6.811 4.257 9.852 5.96v0c6.568 3.892 12.893 7.541 16.42 7.541v0c0.365 0 0.73 0 0.973 0v0c3.649-0.365 6.203-3.041 6.203-6.446v0c0-0.122 0-0.365 0-0.487v0c-0.365-2.797-3.041-6.568-5.717-10.46v0c-2.676-3.892-5.352-7.663-5.595-10.095v0c0-0.122 0-0.243 0-0.365v0c0.122-0.973 0.122-1.095 0.973-1.216v0c0.122 0 0.243 0 0.365 0v0c2.068 0 9.974 4.257 18.123 9.122v0c8.271 4.865 16.907 10.339 21.164 12.649v0c19.461 10.582 28.583 16.055 42.205 16.177v0c1.216 0 2.433 0 3.649-0.243v0c3.041-0.365 6.081-1.095 8.149-2.554v0c1.338-0.851 1.703-1.824 1.703-2.797v0c0 0 0-0.122 0-0.122v0c-0.122-1.095-1.216-1.703-2.797-1.581v0c-9.852 0.73-21.164-2.676-33.935-11.19v0c-11.068-7.419-20.191-16.785-20.677-22.137v0c0-0.243 0-0.365 0-0.608v0c0-1.216 0.487-1.946 1.581-2.068v0c0.122 0 0.243 0 0.365 0v0c2.068 0 10.947 3.284 25.785 16.42v0c4.379 3.892 10.947 11.433 14.231 15.325v0c1.46 1.703 2.919 1.703 3.527 1.703v0c0.122 0 0.243 0 0.365 0v0c2.189-0.365 2.797-2.919 2.797-5.352v0c0-0.365 0-0.851-0.122-1.216v0c-0.608-5.23-4.622-14.96-10.582-26.394v0c14.474 8.879 23.839 14.474 28.826 17.88v0c14.96 10.217 28.705 23.718 48.409 23.839v0c1.338 0 2.676-0.122 3.771-0.243v0c6.811-0.73 9.487-3.527 9.609-5.352v0c0-0.243 0-0.365 0-0.608v0c-0.122-0.973-0.487-1.703-1.216-2.068v0c-0.73-0.365-1.581-0.365-2.554-0.365v0c-0.487 0-1.095 0.122-1.703 0.243v0c-0.73 0.122-1.46 0.243-2.189 0.365v0c-8.636 0.973-19.339-3.406-27.975-9.365v0c-8.636-5.96-15.204-13.501-15.69-18.488v0c0-0.243 0-0.487 0-0.73v0c0-1.581 0.608-2.189 1.824-2.433v0c0.122 0 0.243 0 0.365 0v0c6.568 0 24.326 12.406 36.124 23.596v0c3.649 3.527 5.595 4.014 7.055 4.014v0c0.122 0 0.122 0 0.243 0v0c1.824-0.243 3.284-2.311 3.406-3.892v0c0-0.122 0-0.122 0-0.243v0c-0.243-1.946-2.919-5.108-5.595-8.636v0c-2.676-3.527-5.352-7.419-5.595-10.095v0c0-0.122 0-0.365 0-0.487v0c0-1.338 0.487-1.703 1.338-1.824v0c0.122 0 0.243 0 0.243 0v0c2.676-0.122 13.258 7.541 24.448 15.933v0c11.312 8.514 22.258 17.758 31.016 24.934v0c8.757 7.055 15.082 12.041 18.001 12.163v0c0.365 0 0.608 0 0.973 0v0c2.919-0.243 4.014-2.311 4.014-4.257v0c0 0 0-0.122 0-0.122v0c-0.243-2.068-4.5-7.541-11.676-18.244v0c-0.487-0.73-0.851-1.338-0.973-1.824v0c0-0.122 0-0.122 0-0.243v0c0-0.365 0.122-0.365 0.487-0.487v0c0 0 0.122 0 0.122 0v0c0.73 0 3.892 1.581 7.419 3.284v0c3.649 1.581 8.028 3.284 12.041 3.284v0c0.73 0 1.338 0 1.946-0.122v0c4.865-0.487 7.541-3.406 7.419-8.028v0c0-0.487 0-1.095-0.122-1.581v0c-0.851-7.176-6.811-13.987-11.555-18.731v0c-0.365-0.365-0.608-0.608-0.851-0.851v0c-0.122-0.122-0.122-0.243-0.122-0.243v0c0 0 0 0 0 0v0c0 0 0 0 0.122 0v0c0 0 0.122 0 0.122 0v0c0.243 0 0.73 0.122 1.46 0.487v0c3.162 1.46 53.76 31.016 70.788 31.137v0c0.365 0 0.608 0 0.973 0v0c3.162-0.365 4.622-2.554 4.622-3.771v0c0-0.122 0-0.243 0-0.365v0c-0.122-0.73-0.487-1.095-0.73-1.46v0c-0.243-0.365-0.487-0.487-0.608-1.216v0c0-0.122 0-0.243 0-0.487v0c0-0.73 0.608-1.095 1.46-1.824v0c0.851-0.73 1.824-1.703 1.824-3.892v0c0-0.243 0-0.365 0-0.608v0c-0.243-1.581-0.973-3.284-1.46-4.014v0c14.231 9.001 20.677 13.136 28.461 19.096v0c0 0.122 0 0.243 0 0.365v0c0.73 6.811 4.865 9.974 8.757 9.974v0c0.243 0 0.487 0 0.73 0v0c2.676-0.243 4.379-2.311 4.379-4.987v0c0-0.122 0-0.243 0-0.365v0c-0.243-2.189-2.189-4.135-2.433-5.838v0c0-0.122 0-0.122 0-0.243v0c-0.122-3.041 2.433-3.771 5.473-4.865v0c2.919-0.973 6.203-2.433 6.203-6.811v0c0-0.243 0-0.365 0-0.608v0c-0.608-4.622-6.568-8.271-14.352-15.082v0c-5.352-4.5-8.757-7.784-9.122-11.19v0c0-0.243 0-0.487 0-0.608v0c0-2.068 2.189-3.162 3.284-3.284v0c0.122 0 0.122 0 0.243 0v0c3.284 0 11.19 1.338 26.515 7.906v0c0 0.851 0.122 1.703 0.122 2.433v0c2.554 22.38 30.164 38.557 39.165 38.678v0c0.73 0 1.581 0 2.311-0.122v0c7.419-0.851 11.676-5.717 11.676-10.095v0c0-0.365 0-0.73 0-1.095v0c-1.338-10.947-19.217-22.015-38.678-30.651v0c-1.46-0.608-2.919-1.338-4.5-1.946v0c0.122-6.203 4.622-10.703 16.177-12.041v0c2.068-0.243 4.257-0.365 6.811-0.365v0c19.461 0 48.409 8.149 48.409 8.149 13.379 3.649 13.014 3.406 13.014 3.406 3.162 0.851 5.96-0.365 5.96-0.365 1.095-0.487 2.068-1.216 2.068-2.311v0c0-0.122 0-0.122 0-0.243v0c-0.487-3.649-11.798-6.933-11.798-6.933-19.947-6.203-37.948-8.271-53.517-8.392v0c-3.406 0-6.69 0.122-9.609 0.487v0c-14.109 1.581-23.596 6.811-26.515 14.96v0c-14.839-5.595-28.461-9.122-34.178-9.122v0c-0.608 0-1.216 0-1.946 0.122v0c-4.865 0.487-8.757 3.406-8.757 9.001v0c0 0.487 0 0.973 0.122 1.46v0c0.73 6.69 6.325 12.285 11.798 17.028v0c5.473 4.622 10.703 8.636 10.825 10.825v0c0 0 0 0.122 0 0.122v0c0 1.581-0.73 2.068-1.824 2.797v0c-1.095 0.608-2.433 1.216-3.284 2.554v0c-3.162-0.365-15.082-7.541-29.678-17.515v0c-8.149-5.595-31.137-25.542-43.787-25.664v0c-0.487 0-0.973 0-1.46 0.122v0c-5.108 0.487-8.636 4.135-8.636 9.974v0c0 0.608 0 1.216 0.122 1.824v0c0.608 5.838 4.379 10.217 7.419 13.623v0c0.851 0.973 2.433 2.433 2.797 3.041v0c0 0 0 0 0 0v0c0 0.122 0 0.122-0.122 0.122v0c0 0 0 0-0.122 0v0c-0.487 0-1.581-0.365-2.311-0.73v0c-24.691-11.555-50.72-29.069-64.342-29.191v0c-0.243 0-0.608 0-0.851 0v0c-2.554 0.243-5.838 2.068-5.838 6.446v0c0 0.243 0 0.487 0 0.608v0c0.122 0.73 0.365 1.338 0.851 1.581v0c0.487 0.243 1.216 0.243 2.068 0.243v0c17.028-1.824 33.327 21.772 34.056 29.069v0c0 0.243 0 0.365 0 0.487v0c0 1.46-0.608 2.189-1.824 2.311v0c-0.122 0-0.243 0-0.487 0v0c-3.649 0-16.177-4.014-30.894-22.38v0c-3.284-3.771-56.436-76.262-56.436-76.262-5.23-6.568-7.419-8.636-10.46-8.757v0c-0.122 0-0.243 0-0.365 0v0c-4.744 0.608-6.325 4.622-5.595 7.663 0.851 3.527 4.257 7.784 6.325 10.46l76.505 93.168c2.311 3.527-0.608 2.433-0.608 2.433-1.338-0.487-6.811-3.892-9.974-6.446l-18.853-13.866c-19.582-15.325-29.678-22.988-39.408-22.988v0c-0.365 0-0.73 0-1.095 0v0c-4.744 0.487-6.325 4.5-6.325 7.176v0c0 0.365 0 0.851 0 1.216v0c0.122 1.338 0.487 2.433 1.216 3.649v0c0.122 0.243 0.243 0.487 0.243 0.608v0c-0.122 0-0.487-0.243-0.973-0.487v0c-11.798-7.541-21.528-13.014-28.34-13.136v0c-0.487 0-0.973 0-1.338 0.122v0c-5.23 0.608-8.149 4.622-8.149 9.73v0c0 0.608 0 1.216 0.122 1.824v0c0.122 1.095 0.365 1.946 0.365 2.554v0 0 0c0 0-0.122 0.122-0.243 0.122v0 0c-0.122 0-0.608-0.122-1.338-0.487v0c-6.933-3.771-16.907-9.852-29.069-17.515v0c-8.514-14.839-19.582-31.016-30.529-44.152v0c-28.218-33.327-66.896-62.761-86.479-62.883v0c-0.608 0-1.216 0-1.824 0.122v0c0 0-0.122 0-0.122 0v0c-4.257 0.487-8.149 2.797-8.149 8.636v0zM595.499 448.547c-34.178-23.718-64.585-53.152-65.68-64.099v0c0-0.243 0-0.487 0-0.608v0c0-1.946 0.851-2.554 2.189-2.797v0c0.122 0 0.243 0 0.487 0v0c3.406 0 14.596 6.203 28.461 17.393v0c13.987 11.19 30.894 27.123 46.584 46.706v0c7.419 9.244 13.258 17.028 17.88 23.596v0c-9.365-6.081-19.339-12.893-29.921-20.191v0zM376.444 474.211c-20.434-12.893-39.286-27.488-40.259-37.219v0c0-0.365 0-0.608 0-0.851v0c0-4.257 2.433-6.69 9.001-7.419v0c1.216-0.122 2.676-0.243 4.135-0.243v0c33.205 0.122 71.761 22.623 75.897 59.963v0c0.243 2.189 0.365 4.5 0.365 6.811v0c0 2.433 0 4.5-0.122 6.325v0c-8.271-4.014-29.434-14.96-49.017-27.367v0zM714.696 499.51v0 0 0 0 0zM509.263 612.991c-4.135 0-21.407-8.392-37.948-21.407v0c-10.947-8.636-21.528-19.217-28.096-30.651v0c27.123 17.028 46.949 29.921 58.017 38.8v0c6.325 4.987 9.73 8.879 9.852 11.19v0c0 0.122 0 0.243 0 0.243v0c0 1.216-0.487 1.703-1.581 1.946v0c0-0.122-0.122-0.122-0.243-0.122v0zM990.552 532.107c-2.919 0-10.46-4.014-17.271-10.217v0c-5.23-4.744-10.217-10.703-12.649-17.028v0c21.893 10.703 31.016 19.582 31.502 25.177v0c0 0.243 0 0.487 0 0.608v0c0 0.973-0.487 1.216-1.338 1.338v0c0 0-0.122 0.122-0.243 0.122v0zM881.815 522.741c-3.649 0-11.19-4.865-17.758-10.703v0c-6.568-5.838-12.285-12.893-12.649-16.663v0c0-0.122 0-0.365 0-0.487v0c0-0.973 0.73-1.946 1.824-2.068v0c0.122 0 0.122 0 0.243 0v0 0c4.5 0 12.163 4.5 18.609 10.217v0c6.568 5.595 12.041 12.528 12.406 16.542v0c0 0.243 0 0.365 0 0.608v0c0 1.338-0.851 2.433-2.311 2.554v0c-0.122 0-0.243 0-0.365 0v0zM853.354 491.847c0 0 0 0 0 0v0 0 0 0z" horiz-adv-x="1448" />
<glyph unicode="&#xe647;" d="M51.2 499.2h614.4v-102.4h-614.4v102.4zM51.2 755.2h307.2v-102.4h-307.2v102.4zM972.8 243.2v-102.4h-921.6v102.4h921.6z" />
<glyph unicode="&#xe648;" d="M128 192h256v85.333h-256v-85.333zM128 704v-85.333h768v85.333h-768zM128 405.333h512v85.333h-512v-85.333z" />
<glyph unicode="&#xe649;" d="M1346.919 164.154v-50.751l741.502 33.684-741.502 17.067zM1349.614 68.94v-50.302l434.751 34.133-434.751 16.168zM1830.175 834.695q50.302 0 87.13-26.498 32.786-30.091 43.116-90.723l139.228 13.923q-8.533 102.4-82.189 166.625-70.512 61.979-185.039 61.979-101.951 0-187.284-52.098-87.579-52.996-135.186-154.049-47.158-102.4-47.158-220.070 0-147.312 72.758-226.807 71.411-78.147 201.207-78.147 114.975 0 201.656 61.979 87.13 63.326 126.653 180.996l-145.516 22.456q-23.354-72.309-71.86-106.442-44.912-36.379-101.053-36.379-61.53 0-101.502 44.463-41.319 51.649-41.319 132.94 0 70.961 33.684 155.396 28.744 75.004 79.944 114.077 50.751 36.379 112.73 36.379zM2532.604 704.449q-57.937 61.979-174.709 61.979-131.144 0-210.189-85.782-78.147-85.782-79.495-224.561v-3.144q1.347-60.182 27.396-111.382 29.193-57.488 82.189-82.189 55.691-30.54 126.653-30.54 134.288 0 212.435 92.519 80.842 90.723 80.842 213.782 0 109.586-65.123 169.319zM2357.895 664.028q44.014 0 73.207-30.54 28.295-28.295 28.744-78.147v-1.347q-0.449-102.849-53.895-166.175-39.074-50.302-96.561-50.302-44.912 0-74.554 31.439-30.091 30.54-30.091 88.926 0 48.954 18.863 97.46 18.863 51.649 54.344 81.291 36.379 27.396 79.944 27.396zM3247.158 647.86q14.821-14.372 14.821-34.582-2.695-5.839-14.821-66.919l-66.021-312.589h137.881l66.021 312.589q13.025 71.411 13.025 92.070 0 53.446-33.235 88.926-34.133 34.133-96.561 34.133-53.446 0-103.298-25.151-43.565-21.558-74.554-63.326-13.025 43.116-40.87 64.674-32.786 26.049-88.477 26.049-87.579 0-160.337-73.207l11.228 61.979h-130.246l1.347-6.288-106.442-512.449h136.533l68.267 315.284q13.923 38.625 33.235 61.979 15.27 20.211 42.667 36.828 22.456 12.575 45.811 12.575 24.702 0 38.175-12.575 14.821-14.372 14.821-34.582l-75.902-379.509h137.881l47.158 233.095q21.109 102.849 50.302 140.126 40.421 53.446 93.867 53.446 25.151 0 37.726-12.575zM3707.509 660.435q25.151 0 37.726-12.575 14.372-14.372 14.372-34.582l-75.902-379.509h137.881l47.158 233.095q18.863 100.154 50.302 140.126 40.421 53.446 93.867 53.446 25.151 0 37.726-12.575 14.821-14.372 14.821-34.582-2.695-5.839-14.821-66.919l-66.021-312.589h137.881l64.674 312.589q14.372 64.225 14.372 92.070 0 54.344-34.582 88.926-32.786 34.133-95.214 34.133-53.446 0-103.298-25.151-43.565-21.558-74.554-63.326-13.025 43.116-40.87 64.674-32.786 26.049-88.477 26.049-88.477 0-160.337-73.207l11.228 61.979h-130.246l1.347-6.288-106.442-512.449h136.533l48.056 235.34q15.719 69.614 20.211 79.944 12.575 34.133 31.888 61.979 18.863 21.109 44.014 36.828 22.456 12.575 46.709 12.575zM4640.337 709.389q-52.996 57.039-148.211 57.039-143.27 0-227.256-112.281-58.386-76.351-58.386-187.284 0-109.137 63.326-172.463 66.919-66.919 169.319-66.919 78.147 0 136.533 36.828 57.039 36.379 96.561 110.933l-123.060 20.66q-39.972-69.614-110.035-69.614-39.523 0-70.961 31.439-30.091 28.744-30.091 82.189v13.025h346.723v3.144q9.881 32.786 9.881 90.274 0 104.196-54.344 163.032zM4398.26 636.632q35.481 31.439 77.698 31.439 42.667 0 68.267-29.642 25.151-34.133 25.151-87.13v-11.228h-217.375q9.881 57.488 46.26 96.561zM4762.947 752.505l2.695-1.347-107.789-512.449h136.533l33.235 159.888q17.965 93.418 41.319 144.168 16.618 43.116 57.039 73.207 35.032 26.947 72.758 26.947 14.821 0 41.319-6.288l52.098 114.526q-30.989 15.27-64.674 15.27-80.393 0-155.396-108.688l20.211 94.765h-129.347zM5279.439 659.088q35.481 0 57.039-20.66 25.6-22.456 27.396-63.775l129.347 12.575q-5.839 76.351-61.979 127.102-47.607 47.158-141.923 47.158-82.189 0-154.049-44.014-71.411-41.768-105.095-115.425-34.582-70.063-34.582-157.193 0-102.849 57.039-160.337 59.733-59.733 155.396-59.733 87.579 0 150.905 48.505 61.979 45.361 97.909 136.533l-134.737 22.456v-2.246q-17.965-49.404-47.607-72.309-32.786-25.151-63.326-25.151-33.235 0-55.691 25.151-22.007 22.007-22.007 70.961 0 52.996 17.965 111.382 16.618 55.242 52.098 88.477 34.582 30.54 75.902 30.54zM5904.168 709.389q-52.996 57.039-147.761 57.039-145.516 0-226.807-112.281-58.386-75.902-58.386-187.284 0-109.137 63.326-172.463 65.123-66.919 169.768-66.919 78.147 0 136.533 36.828 60.632 39.972 94.765 110.933l-122.161 20.66q-40.87-69.614-109.137-69.614-39.074 0-71.86 31.439-29.642 29.642-29.642 82.189v13.025h347.172v3.144q9.881 43.116 9.881 90.274 0 101.951-55.691 163.032zM5740.688 668.070q42.667 0 68.267-29.642 25.6-33.684 25.6-87.13v-11.228h-217.375q9.432 59.284 45.811 96.561 34.582 31.439 77.698 31.439zM1660.856 774.512l-13.025 4.94q-184.589 47.158-294.625-109.137-46.709-69.165-137.881-216.028-74.554-123.060-137.881-214.232-34.582-48.954-85.333-58.386-33.235-4.94-105.993 9.432l-19.312 4.94-16.168-137.881v-1.347l14.372-4.94q95.663-28.295 191.775-3.144 66.021 19.761 114.077 74.105 14.821 16.618 79.495 110.933 39.972 59.733 109.137 176.056 60.632 101.951 112.73 176.056 37.726 52.996 63.326 63.326 24.253 10.779 92.070-1.347l17.516-4.94 15.719 131.593zM1632.561 665.375l11.228 98.358q-177.853 44.463-275.761-103.298-62.428-88.926-140.126-215.579-86.232-138.33-137.881-212.435-35.032-52.547-84.884-63.326-44.014-9.881-122.611 6.288l-10.779-105.993h-1.796q97.011-27.846 181.895-1.347 60.632 16.168 105.095 66.021 14.372 17.516 80.842 110.933 39.074 57.488 109.137 176.056 66.021 110.035 110.933 176.056 40.87 57.039 70.063 69.614 30.54 13.025 104.646-1.347zM434.302 706.246q-52.547 57.488-149.109 57.488-144.168 0-226.807-110.933-58.386-82.639-58.386-187.284 0-111.382 63.326-174.709 70.063-66.021 169.768-66.021 71.86 0 135.635 35.93 59.733 37.726 97.011 112.73l-123.509 21.109q-39.074-71.86-109.137-71.86-40.421 0-71.86 31.439-28.295 28.295-28.295 82.639v14.372h345.825v1.796q8.982 34.582 8.982 92.070 0 103.747-53.446 161.235zM269.025 665.375q42.218 0 68.267-28.744 25.151-34.133 25.151-87.579v-10.33h-216.477q9.881 59.284 45.361 94.765 35.93 31.888 77.698 31.888zM535.804 639.775h227.705l-279.804-308.547-17.965-93.867h416.786l23.804 110.484h-247.018l283.846 317.53 15.27 85.782h-398.821l-23.804-111.382zM980.884 751.158v-3.593l87.579-489.544 94.765 163.032-44.463 330.105h-137.881zM1019.509 21.333q0 31.439-22.905 54.344-22.456 23.354-54.344 23.354t-57.488-23.354q-23.354-22.905-23.354-54.344t23.354-54.793q25.6-23.354 57.488-23.354t54.344 23.354q22.905 23.354 22.905 54.793zM1182.989 192.449q-33.684 0-56.14-22.456-23.354-23.354-23.354-56.14 0-33.235 23.354-55.242 22.456-22.905 56.14-22.905 32.786 0 56.14 22.905 22.456 21.558 22.456 55.242t-22.456 56.14q-24.702 22.456-56.14 22.456z" horiz-adv-x="5964" />
<glyph unicode="&#xe64a;" d="M1830.625 835.144q50.302 0 86.681-26.947 33.235-31.439 42.667-91.172l140.126 14.372q-9.432 103.747-82.639 166.625-70.063 61.979-185.488 61.979-101.502 0-186.386-52.098-88.028-52.996-135.186-153.6-47.158-103.298-47.158-220.519 0-148.211 72.309-226.358 71.411-78.596 201.207-78.596 114.077 0 202.105 62.428 85.782 62.428 126.653 180.098l-145.965 23.354q-23.354-73.207-71.86-106.442-44.463-36.379-101.053-36.379-62.428 0-101.053 44.014-42.218 51.649-42.218 132.491 0 71.411 33.684 156.295 29.642 74.554 80.393 113.179 50.751 37.277 113.179 37.277zM4640.337 709.389q-52.996 57.039-148.211 57.039-143.27 0-227.256-112.281-58.386-77.249-58.386-187.284 0-109.137 63.326-172.014 66.919-67.368 169.768-67.368 77.249 0 136.084 36.828 57.488 36.828 96.112 111.382l-123.060 20.211q-39.523-69.614-109.137-69.614-39.972 0-71.411 31.439-30.54 29.193-30.54 82.189v13.025h347.172v3.593q9.432 32.786 9.432 89.825 0 103.747-53.895 163.032zM4398.26 636.182q35.481 31.439 77.698 31.439 43.116 0 67.818-29.193 26.049-33.235 26.049-87.579v-11.228h-217.825q9.432 57.488 46.26 96.561zM4762.947 752.056l3.144-1.347-107.789-512h136.533l32.337 159.439q19.312 95.663 42.218 145.067 16.168 43.116 56.589 72.758 35.93 26.947 72.758 26.947 15.719 0 41.319-6.737l52.098 114.526q-30.989 15.719-65.123 15.719-80.393 0-155.396-108.688l20.66 94.316h-129.347zM2532.604 704.898q-57.488 61.53-174.26 61.53-132.042 0-210.639-85.333-77.698-85.333-79.944-224.561v-3.593q2.246-60.182 27.846-110.933 27.846-56.589 82.189-83.088 56.14-30.091 127.102-30.091 134.288 0 211.986 92.070 80.842 92.070 80.842 214.232 0 109.137-65.123 169.768zM2358.344 664.028q43.116 0 73.207-30.091 27.846-28.295 28.295-78.596v-0.898q-0.449-103.747-53.895-166.175-38.625-50.751-96.561-50.751-45.811 0-74.554 31.439-30.091 30.54-30.091 88.926 0 49.404 18.863 97.46 18.863 51.649 54.344 80.842 35.93 27.846 80.393 27.846zM3707.060 659.986q26.049 0 38.175-12.575 14.372-13.923 14.372-34.582l-75.902-378.611h137.881l47.158 232.646q18.863 100.604 50.751 140.126 39.523 52.996 93.418 52.996 25.6 0 38.175-12.575 14.372-13.025 14.372-34.582-3.593-8.084-14.372-66.47l-66.47-312.14h138.33l64.225 312.14q14.372 64.225 14.372 92.070 0 55.242-35.032 88.926-32.337 34.582-94.316 34.582-52.098 0-103.298-25.6-44.912-22.456-74.554-63.326-13.923 43.565-41.319 65.123-33.684 26.049-88.477 26.049-87.579 0-160.786-73.207l11.228 61.081h-130.246l1.347-5.839-105.544-512h136.533l47.607 234.891q15.719 69.165 20.211 80.393 13.025 34.133 31.439 61.979 18.414 19.312 44.912 35.93 20.66 12.575 45.811 12.575zM3247.607 647.411q14.821-13.474 14.821-34.582-3.144-4.491-14.821-66.47l-66.021-312.14h137.881l65.572 312.14q13.025 71.411 13.025 92.070 0 53.446-33.235 88.926-34.582 34.582-96.561 34.582-51.2 0-103.298-25.6-44.014-22.456-74.554-63.326-13.025 43.116-40.421 65.123-34.133 26.049-89.375 26.049-86.681 0-159.888-73.207l11.228 61.081h-130.246l1.347-5.839-106.442-512h136.982l68.267 315.284q13.025 37.277 32.786 61.979 15.719 19.761 42.667 35.93 21.109 12.575 45.811 12.575 25.6 0 38.175-12.575 14.821-13.923 14.821-34.582l-76.351-378.611h137.881l47.158 232.646q22.007 103.298 50.751 140.126 40.421 52.996 93.867 52.996 25.6 0 38.175-12.575zM5492.772 589.025q-6.737 75.004-61.53 125.754-47.607 47.158-141.923 47.158-81.74 0-154.498-44.912-70.063-40.87-104.196-115.425-35.032-68.716-35.032-156.295 0-103.747 57.488-160.337 59.284-59.733 155.396-59.733 87.13 0 150.456 48.505 61.979 44.912 97.909 136.533l-134.288 22.456v-2.246q-18.863-49.853-48.505-72.758-32.337-25.6-63.326-25.6-32.337 0-55.691 25.6-21.109 22.456-21.109 70.961 0 52.098 17.516 110.933 16.168 55.691 52.098 88.926 34.133 30.091 75.902 30.091 36.828 0 57.039-20.211 25.6-22.905 26.947-63.775l128.449 12.126q-20.66-54.344-20.66-119.916 0-108.688 63.326-172.014 64.674-67.368 169.768-67.368 77.249 0 136.533 36.828 61.53 40.421 95.214 111.382l-123.060 20.211q-39.972-69.614-108.688-69.614-39.074 0-71.411 31.439-29.642 29.193-29.642 82.189v13.025h346.274v3.593q10.33 41.319 10.33 89.825 0 101.951-55.691 163.032-53.895 57.039-147.761 57.039-145.965 0-226.807-112.281-22.007-28.744-36.828-65.123zM5740.688 667.621q42.667 0 68.716-29.193 25.151-34.133 25.151-87.579v-11.228h-217.375q9.432 59.733 45.361 96.561 35.481 31.439 78.147 31.439zM1346.919 163.705v-49.853l741.951 33.684-741.951 16.168zM1349.614 69.389v-50.751l435.2 34.582-435.2 16.168zM1660.856 774.512l-13.025 4.94q-184.589 47.158-294.625-109.137-46.709-69.165-137.881-216.028-74.554-123.060-137.881-214.232-34.582-48.954-85.333-58.386-33.235-4.94-105.993 9.432l-19.312 4.94-16.168-137.881v-1.347l14.372-4.94q95.663-28.295 191.775-3.144 66.021 19.761 114.077 74.105 14.821 16.618 79.495 110.933 39.972 59.733 109.137 176.056 60.632 101.951 112.73 176.056 37.726 52.996 63.326 63.326 24.253 10.779 92.070-1.347l17.516-4.94 15.719 131.593zM1632.561 665.375l11.228 98.358q-177.853 44.463-275.761-103.298-62.428-88.926-140.126-215.579-86.232-138.33-137.881-212.435-35.032-52.547-84.884-63.326-44.014-9.881-122.611 6.288l-10.779-105.993h-1.796q97.011-27.846 181.895-1.347 60.632 16.168 105.095 66.021 14.372 17.516 80.842 110.933 39.074 57.488 109.137 176.056 66.021 110.035 110.933 176.056 40.87 57.039 70.063 69.614 30.54 13.025 104.646-1.347zM434.302 706.246q-52.547 57.488-149.109 57.488-144.168 0-226.807-110.933-58.386-82.639-58.386-187.284 0-111.382 63.326-174.709 70.063-66.021 169.768-66.021 71.86 0 135.635 35.93 59.733 37.726 97.011 112.73l-123.509 21.109q-39.074-71.86-109.137-71.86-40.421 0-71.86 31.439-28.295 28.295-28.295 82.639v14.372h345.825v1.796q8.982 34.582 8.982 92.070 0 103.747-53.446 161.235zM269.025 665.375q42.218 0 68.267-28.744 25.151-34.133 25.151-87.579v-10.33h-216.477q9.881 59.284 45.361 94.765 35.93 31.888 77.698 31.888zM535.804 639.775h227.705l-279.804-308.547-17.965-93.867h416.786l23.804 110.484h-247.018l283.846 317.53 15.27 85.782h-398.821l-23.804-111.382zM980.884 751.158v-3.593l87.579-489.544 94.765 163.032-44.463 330.105h-137.881zM1019.509 21.333q0 31.439-22.905 54.344-22.456 23.354-54.344 23.354t-57.488-23.354q-23.354-22.905-23.354-54.344t23.354-54.793q25.6-23.354 57.488-23.354t54.344 23.354q22.905 23.354 22.905 54.793zM1182.989 192.449q-33.684 0-56.14-22.456-23.354-23.354-23.354-56.14 0-33.235 23.354-55.242 22.456-22.905 56.14-22.905 32.786 0 56.14 22.905 22.456 21.558 22.456 55.242t-22.456 56.14q-24.702 22.456-56.14 22.456z" horiz-adv-x="2066" />
<glyph unicode="&#xe64b;" d="M544 573.44l2.56-515.84h409.6v515.84h-412.16zM458.24 573.44h-385.28v-515.84h385.28v515.84zM458.24 606.72v230.4h-422.4v-230.4h422.4zM988.16 606.72v230.4h-445.44l1.28-230.4h444.16zM933.12 386.56h-330.24v-298.24h330.24v298.24zM670.72 224v-35.84h244.48v35.84h-244.48zM670.72 157.44v-35.84h244.48v35.84h-244.48zM801.28 254.72v35.84h-130.56v-35.84h130.56z" />
<glyph unicode="&#xe64c;" d="M128 224v-160h160l472.107 472.107-160 160-472.107-472.107zM883.413 659.413c16.64 16.64 16.64 43.733 0 60.373l-99.627 99.627c-16.64 16.64-43.733 16.64-60.373 0l-78.080-78.080 160-160 78.080 78.080z" />
<glyph unicode="&#xe64d;" d="M440.32-40.96c15.36-12.8 33.28-20.48 53.76-23.040h5.12c20.48 2.56 38.4 10.24 53.76 23.040 15.36 15.36 23.040 35.84 23.040 58.88 0 15.36-5.12 30.72-12.8 46.080-2.56 2.56-5.12 5.12-10.24 10.24-15.36 15.36-35.84 23.040-56.32 23.040-23.040 0-40.96-7.68-56.32-23.040-2.56-2.56-5.12-5.12-7.68-10.24-10.24-12.8-15.36-28.16-15.36-46.080 0-23.040 7.68-43.52 23.040-58.88zM555.52 921.6c-12.8 15.36-28.16 23.040-46.080 25.6-5.12 2.56-7.68 2.56-10.24 2.56-23.040 0-40.96-10.24-58.88-28.16-5.12-7.68-10.24-15.36-12.8-23.040-7.68-15.36-10.24-30.72-10.24-48.64 0-12.8 2.56-28.16 5.12-48.64 0-2.56 0-5.12 0-7.68l64-581.12h28.16l64 581.12c0 2.56 0 2.56 0 7.68 2.56 15.36 2.56 30.72 2.56 40.96 0 12.8 0 25.6-2.56 35.84-2.56 7.68-2.56 15.36-7.68 23.040-5.12 5.12-10.24 12.8-15.36 20.48z" />
<glyph unicode="&#xe64e;" d="M768.995 841.531q-5.269 9.009-15.298 5.099l-63.913-25.497q-21.078 16.828-42.155 25.497l-10.199 67.822q-0.85 5.609-4.419 8.669-3.4 2.89-8.329 2.89h-102.328q-4.929 0-8.839-3.91t-3.91-7.649l-10.199-67.822q-18.358-6.629-43.345-25.497l-63.913 25.497q-8.669 3.57-15.298-5.099l-51.164-89.41q-5.439-9.349 3.91-16.658l53.714-42.155-1.36-24.307 0.17-6.459q0.34-8.669 1.19-19.038l-53.714-42.155q-4.589-3.57-5.269-7.819-0.68-3.57 1.36-8.839l51.164-88.22q6.289-10.199 16.658-5.099l63.913 25.497q25.157-18.868 43.345-25.497l10.199-67.652q0-3.91 3.74-7.819 3.74-3.74 9.009-3.74h102.158q10.879 0 12.919 11.559l10.199 67.652q17.848 6.459 43.345 25.497l63.913-25.497q8.839-3.57 15.468 5.099l48.444 88.22q5.609 9.179-3.74 16.658l-53.714 42.155q0.68 10.369 1.7 19.038l0.85 6.459-2.55 24.307 53.714 42.155q4.419 3.57 5.269 7.819 0.51 3.57-1.53 8.839l-51.164 89.41zM662.927 669.001q0-37.056-25.497-62.553-26.857-26.857-63.913-26.857t-63.913 26.857q-25.497 23.797-25.497 62.553 0 36.546 25.497 63.913 27.537 25.667 63.913 25.667t63.913-25.667q13.258-13.258 19.378-29.067 6.119-15.298 6.119-34.846zM524.393 341.109l-55.074-21.927q-15.128 12.579-36.036 21.927l-8.839 58.303q-0.68 4.759-3.74 7.479-2.89 2.38-7.139 2.38h-88.050q-4.419 0-7.649-3.23-3.4-3.4-3.4-6.629l-8.669-58.303q-16.148-5.949-37.396-21.927l-55.074 21.927q-7.649 3.060-13.088-4.419l-44.025-75.811q-4.759-7.989 3.4-14.278l46.065-36.376-1.020-20.738 1.020-22.097-46.065-36.206q-3.91-3.060-4.589-6.799-0.68-3.060 1.19-7.479l44.025-75.981q5.269-8.839 14.278-4.25l53.884 21.927q21.757-16.488 37.396-21.927l8.669-58.303q0-3.23 3.4-6.629 3.23-3.23 7.649-3.23h88.050q9.859 0 9.859 9.859l8.839 58.303q15.468 5.439 37.056 21.927l55.074-21.927q7.479-3.060 13.088 4.25l44.025 75.981q4.759 7.649-3.23 14.278l-46.235 36.206 1.19 22.097-1.19 20.738 46.235 36.376q7.989 6.459 3.23 14.278l-44.025 75.811q-4.589 7.819-13.088 4.419zM369.541 266.318q32.636-1.53 53.884-23.117 23.117-23.117 23.117-53.714 0-31.786-23.117-55.074-22.097-21.927-53.884-21.927-31.276 0-55.074 21.927-21.927 20.398-21.927 55.074 0 31.786 21.927 53.714 23.117 23.117 55.074 23.117z" />
<glyph unicode="&#xe64f;" d="M85.76 64l895.573 384-895.573 384-0.427-298.667 640-85.333-640-85.333z" />
<glyph unicode="&#xe650;" d="M693.12 629.12c-50.133 49.92-115.627 74.88-181.12 74.88v-256l-181.12-181.12c100.053-100.053 261.973-100.053 362.027 0s100.053 262.187 0.213 362.24zM512 874.667c-235.733 0-426.667-190.933-426.667-426.667s190.933-426.667 426.667-426.667 426.667 191.147 426.667 426.667c0 235.733-190.933 426.667-426.667 426.667zM512 106.667c-188.587 0-341.333 152.747-341.333 341.333s152.747 341.333 341.333 341.333 341.333-152.747 341.333-341.333-152.747-341.333-341.333-341.333z" />
<glyph unicode="&#xe651;" d="M376.32 204.8v-230.4h258.56v230.4h-258.56zM640 348.16c12.8 20.48 38.4 48.64 81.92 84.48 61.44 46.080 102.4 87.040 122.88 122.88 20.48 33.28 30.72 66.56 30.72 104.96 0 87.040-38.4 156.16-117.76 207.36-56.32 38.4-133.12 56.32-222.72 56.32-117.76 0-204.8-28.16-263.68-84.48s-89.6-128-99.84-217.6l248.32-30.72c5.12 51.2 17.92 84.48 35.84 104.96s43.52 30.72 76.8 30.72c28.16 0 48.64-7.68 61.44-20.48s20.48-30.72 20.48-51.2c0-23.040-17.92-51.2-51.2-79.36-64-53.76-104.96-92.16-125.44-112.64-17.92-20.48-30.72-43.52-40.96-69.12-7.68-25.6-12.8-58.88-12.8-99.84v-25.6h243.2c-2.56 33.28 2.56 58.88 12.8 79.36z" />
<glyph unicode="&#xe652;" d="M792.32 696.32q11.52 25.6 11.52 42.24 0 28.16-16.64 49.92-17.92 23.040-43.52 23.040-28.16 0-48.64-8.96-8.96-2.56-26.88-14.080-5.12-2.56-8.96-7.68h-1.28q-25.77-22.41-85.76-64l1.28 5.12q10.24 67.84-29.44 76.8-5.12 1.28-10.24 1.28-36.68-11.53-37.12-55.040l-17.92 14.080q-12.8 10.24-47.36 20.48-25.6 11.52-39.68 17.92-29.44 11.52-44.8 11.52-37.12 0-64-16.64v1.28q-35.84-19.2-34.56-53.76-1.28-35.84 40.96-84.48 12.8-14.080 46.080-25.6 29.44-8.96 62.72-8.96 47.98 0 101.12 23.040v-66.56q0-12.8 0-21.76-2.56-29.44-14.080-26.88-3.84 1.28-6.4 3.84-49.92 42.24-98.56 7.68l-90.88-44.8q-67.84-14.080-78.080-79.36-2.56-11.52-1.28-25.6l6.4-98.56q12.8-65.28 107.52-198.4 154.88 7.68 189.44-10.24 69.12 21.76 139.52 147.2 2.56 7.68 6.4 14.080 49.92 87.040 140.8 163.84 2.56 3.84 5.12 7.68 37.12 69.12-71.68 23.040-29.44-6.4-75.52-65.28-39.68-70.4-72.96-34.56 5.12 58.88-6.4 110.080l-1.28 12.8q10.24 56.32-1.28 87.040l-2.56 19.2-1.28-5.12v89.6l-1.28-11.52 1.28 14.080v2.56q43.88-24.32 99.84-24.32 23.040 0 48.64 11.52v-1.28q14.080 6.4 48.64 24.32 10.24 3.84 23.040 28.16zM583.68 680.96q-3.84 2.56-7.68 5.12 70.4 51.2 99.84 75.52v1.28q2.56 2.56 6.4 3.84h-1.28q15.36 10.24 21.76 11.52h1.28q16.64 7.68 39.68 7.68 12.8 0 23.040-12.8 11.52-14.080 11.52-34.56 0-11.52-8.96-30.72-7.68-12.8-11.52-16.64-33.28-17.92-46.080-23.040h-1.28q-20.48-8.96-38.4-8.96-49.92 0-88.32 21.76zM346.88 783.36q12.8 0 35.84-10.24l-1.28 1.28q14.080-6.4 40.96-17.92 1.28 0 1.28-1.28 29.44-8.96 39.68-16.64l30.72-24.32q2.49-1.87 5.12-3.84v-38.4q-53.275-25.6-101.12-25.6-28.16 0-55.040 7.68-25.6 7.68-34.56 17.92-33.28 39.68-34.56 67.84 1.28 19.2 21.76 30.72 21.76 12.8 51.2 12.8z" />
</font>
</defs>
</svg>
